<svg width="131" height="42" viewBox="0 0 131 42" fill="none" xmlns="http://www.w3.org/2000/svg">
<g id="airbnb 1" clip-path="url(#clip0_337_10)">
<path id="Vector" d="M69.0402 10.5526C69.0402 12.0663 67.8533 13.2851 66.3803 13.2851C64.9073 13.2851 63.7213 12.0663 63.7213 10.5526C63.7213 9.039 64.8669 7.82018 66.3803 7.82018C67.895 7.86217 69.0402 9.08142 69.0402 10.5526ZM58.0753 16.0604V16.7332C58.0753 16.7332 56.8075 15.0508 54.1071 15.0508C49.6481 15.0508 46.1699 18.5405 46.1699 23.375C46.1699 28.1679 49.6072 31.6992 54.1071 31.6992C56.8484 31.6992 58.0753 29.9756 58.0753 29.9756V30.69C58.0753 31.0264 58.3214 31.278 58.6483 31.278H61.9618V15.4699H58.6483C58.3214 15.4712 58.0753 15.766 58.0753 16.0604ZM58.0753 26.1919C57.4622 27.1171 56.2345 27.9159 54.7619 27.9159C52.1437 27.9159 50.1385 26.2343 50.1385 23.375C50.1385 20.5161 52.1437 18.8345 54.7619 18.8345C56.194 18.8345 57.5031 19.6753 58.0753 20.5581V26.1919ZM64.4169 15.4712H68.3442V31.2792H64.4169V15.4712ZM123.085 15.0503C120.385 15.0503 119.116 16.7328 119.116 16.7328V7.86218H115.189V31.2792H118.503C118.831 31.2792 119.076 30.9848 119.076 30.6904V29.976C119.076 29.976 120.344 31.6996 123.044 31.6996C127.504 31.6996 130.981 28.1692 130.981 23.3762C130.981 18.5833 127.504 15.0503 123.085 15.0503ZM122.431 27.8735C120.916 27.8735 119.73 27.0755 119.116 26.1499V20.5161C119.73 19.6753 121.039 18.7925 122.431 18.7925C125.049 18.7925 127.054 20.4741 127.054 23.333C127.054 26.1919 125.049 27.8735 122.431 27.8735ZM113.144 21.9042V31.3212H109.216V22.3662C109.216 19.7601 108.398 18.7085 106.19 18.7085C105.004 18.7085 103.776 19.3393 102.997 20.2645V31.2797H99.0707V15.4716H102.179C102.506 15.4716 102.752 15.766 102.752 16.0604V16.7332C103.898 15.5136 105.411 15.0508 106.925 15.0508C108.643 15.0508 110.075 15.556 111.221 16.5648C112.611 17.7421 113.144 19.2553 113.144 21.9042ZM89.5367 15.0503C86.8372 15.0503 85.5686 16.7328 85.5686 16.7328V7.86218H81.6412V31.2792H84.9547C85.282 31.2792 85.5277 30.9848 85.5277 30.6904V29.976C85.5277 29.976 86.7963 31.6996 89.4958 31.6996C93.9557 31.6996 97.4331 28.1692 97.4331 23.3762C97.4739 18.5829 93.9966 15.0503 89.5367 15.0503ZM88.882 27.8735C87.3685 27.8735 86.1824 27.0755 85.5686 26.1499V20.5161C86.1824 19.6753 87.4915 18.7925 88.882 18.7925C91.501 18.7925 93.5053 20.4741 93.5053 23.333C93.5053 26.1919 91.501 27.8735 88.882 27.8735ZM78.2452 15.0503C79.4313 15.0503 80.0452 15.2612 80.0452 15.2612V19.0025C80.0452 19.0025 76.7723 17.8672 74.7271 20.2641V31.3208H70.7989V15.4712H74.1132C74.4406 15.4712 74.6854 15.7656 74.6854 16.06V16.7328C75.4227 15.8496 77.0183 15.0503 78.2452 15.0503ZM37.4562 29.8496C37.2519 29.3452 37.0471 28.7988 36.8427 28.3359C36.515 27.5795 36.1876 26.8643 35.9019 26.1919L35.861 26.1499C33.0376 19.8433 30.0107 13.4535 26.8191 7.14778L26.6965 6.89493C26.3608 6.24078 26.0336 5.58204 25.7151 4.91888C25.3056 4.16163 24.8969 3.36364 24.2421 2.6064C22.933 0.924753 21.0509 -0.000488281 19.0466 -0.000488281C17.0006 -0.000488281 15.1598 0.924758 13.8102 2.52199C13.1963 3.27839 12.7459 4.07722 12.3372 4.83447C12.0179 5.49721 11.6908 6.15594 11.3559 6.81052L11.2329 7.06335C8.0825 13.3691 5.0143 19.7593 2.19133 26.0655L2.15005 26.149C1.86396 26.8227 1.53617 27.5371 1.20879 28.2931C1.00443 28.7559 0.800076 29.2603 0.59572 29.8067C0.0635769 31.362 -0.100324 32.8336 0.104849 34.3477C0.554841 37.501 2.60003 40.1486 5.42342 41.3267C6.48729 41.7895 7.59204 41.9995 8.73725 41.9995C9.06463 41.9995 9.47335 41.9575 9.80114 41.9151C11.1515 41.7471 12.5424 41.2851 13.8928 40.4863C15.5701 39.519 17.1657 38.1322 18.9657 36.1142C20.7656 38.1322 22.4021 39.519 24.0386 40.4863C25.3894 41.2851 26.7798 41.7471 28.1298 41.9151C28.4572 41.9579 28.8667 41.9995 29.1941 41.9995C30.3397 41.9995 31.4849 41.7895 32.5075 41.3267C35.3718 40.1486 37.3761 37.459 37.8265 34.3477C38.1514 32.8765 37.9879 31.4057 37.4562 29.8496ZM19.0053 32.0356C16.7958 29.1768 15.3637 26.4863 14.8732 24.2167C14.6689 23.2494 14.6276 22.4086 14.7506 21.6518C14.832 20.9789 15.078 20.3901 15.4054 19.8857C16.1828 18.7513 17.4919 18.0361 19.0057 18.0361C20.52 18.0361 21.87 18.7089 22.6065 19.8857C22.9339 20.3901 23.1791 20.9794 23.2617 21.6518C23.3839 22.409 23.343 23.2914 23.1386 24.2167C22.6461 26.4443 21.214 29.1352 19.0053 32.0356ZM35.3285 34.0117C35.0424 36.1978 33.6102 38.0902 31.6059 38.931C30.6242 39.351 29.5599 39.4775 28.4968 39.351C27.4742 39.2246 26.4508 38.8882 25.3878 38.2582C23.9148 37.4166 22.4422 36.1142 20.7236 34.1797C23.4235 30.7748 25.06 27.6631 25.6739 24.8891C25.9604 23.5854 26.0017 22.4086 25.8782 21.3149C25.7152 20.2641 25.3465 19.2969 24.7739 18.456C23.5048 16.5636 21.3771 15.4712 19.0049 15.4712C16.6328 15.4712 14.505 16.6064 13.2368 18.456C12.6642 19.2969 12.2955 20.2641 12.132 21.3149C11.9685 22.4086 12.009 23.6274 12.3364 24.8891C12.9498 27.6631 14.6272 30.8164 17.2863 34.2217C15.6089 36.1558 14.0951 37.4594 12.6221 38.3002C11.5582 38.9311 10.536 39.2675 9.5134 39.3931C8.40906 39.5195 7.34478 39.3511 6.40392 38.9731C4.3996 38.1322 2.96747 36.2397 2.68138 34.0537C2.55876 33.0029 2.6401 31.9521 3.04962 30.7748C3.17183 30.354 3.377 29.934 3.58136 29.4296C3.86786 28.7568 4.19443 28.0415 4.52221 27.3271L4.5635 27.2435C7.38606 20.9789 10.4134 14.5888 13.5637 8.36701L13.6863 8.11417C14.0141 7.48419 14.3415 6.81136 14.6685 6.18053C14.9959 5.50771 15.3637 4.87688 15.8141 4.33005C16.6732 3.32207 17.8184 2.77482 19.0871 2.77482C20.3557 2.77482 21.5009 3.32207 22.36 4.33005C22.8104 4.87814 23.1783 5.50897 23.5056 6.18053C23.8334 6.81136 24.1608 7.48419 24.4874 8.11417L24.6104 8.36701C27.7127 14.6146 30.6998 20.9219 33.5702 27.2855V27.3275C33.898 28.0012 34.1841 28.7572 34.5114 29.4308C34.7158 29.9344 34.9206 30.3544 35.0432 30.7753C35.3697 31.8672 35.4923 32.9189 35.3285 34.0117Z" fill="#212120"/>
</g>
<defs>
<clipPath id="clip0_337_10">
<rect width="131" height="42" fill="white"/>
</clipPath>
</defs>
</svg>
