<svg width="146" height="39" viewBox="0 0 146 39" fill="none" xmlns="http://www.w3.org/2000/svg">
<g id="bayut-logos-idhj9NirKm 1" clip-path="url(#clip0_348_587)">
<g id="Group">
<path id="Vector" d="M100.679 26.8166C100.613 26.8497 100.514 26.916 100.447 26.9822C99.3872 28.3727 97.6976 29.2003 95.9418 29.1341C94.3516 29.2334 92.7945 28.9355 91.37 28.2402C89.0841 27.1146 87.5601 24.8633 87.2951 22.3472C87.1957 21.6851 87.1626 21.0229 87.1626 20.3608V12.1171C87.1626 11.0246 87.4939 10.6935 88.5871 10.6935H91.0055C91.9663 10.6935 92.3638 11.1239 92.3638 12.084V20.4601C92.3307 21.5526 92.662 22.6452 93.3577 23.539C95.0142 25.3599 97.797 25.4924 99.6191 23.837C100.05 23.4397 100.414 22.9431 100.679 22.4134C100.779 22.1486 100.812 21.8837 100.812 21.6188V12.084C100.812 10.9253 101.143 10.5942 102.303 10.5942H104.655C105.615 10.5942 106.046 11.0246 106.046 11.9847V29.8625C106.179 33.1732 104.323 36.2852 101.342 37.7419C99.4203 38.7351 97.2669 39.1324 95.1135 38.9338C93.7884 38.9007 92.4964 38.5696 91.2706 38.0399C90.1442 37.7088 89.4153 36.5832 89.581 35.4244V34.0671C89.5147 33.6036 89.846 33.1401 90.3098 33.0738C90.5086 33.0407 90.7405 33.107 90.9062 33.2063C91.5687 33.5042 92.1982 33.9015 92.8939 34.1664C94.4178 34.7954 96.0743 34.8947 97.6645 34.4975C99.4535 34.0671 100.712 32.4448 100.712 30.6239V27.0815C100.679 26.9822 100.679 26.916 100.679 26.8166ZM48.0702 11.0908C48.9316 10.7598 49.7929 10.4618 50.6874 10.1969C52.7083 9.66723 54.8617 9.70034 56.8826 10.3625C59.8642 11.3557 62.0176 13.9711 62.4151 17.0501C62.7464 18.7716 62.6802 20.5263 62.2163 22.2148C61.4544 24.9626 59.3672 27.1808 56.6838 28.1409C52.9733 29.73 48.6997 29.3328 45.3205 27.1477C44.7904 26.7835 44.3266 26.3862 43.8959 25.9559C43.2996 25.393 42.9683 24.6316 42.9352 23.837V3.54244C42.9021 2.8472 43.2665 2.18506 43.8959 1.85399L46.5463 0.297962C47.4408 -0.198643 48.0702 0.297962 48.0702 1.19185V11.0908ZM48.0702 19.5662V23.1749C48.0371 23.5059 48.2027 23.837 48.5009 24.0025C49.8592 24.9295 51.5156 25.2606 53.139 24.9295C54.7954 24.7309 56.22 23.6053 56.7832 22.0161C57.1807 20.9898 57.3464 19.8642 57.247 18.7716C57.2138 17.4143 56.6175 16.09 55.5905 15.1961C53.4371 13.6732 50.5218 13.7394 48.4346 15.3285C48.269 15.5272 48.1696 15.7589 48.1696 15.9907C48.0702 17.1494 48.0702 18.3744 48.0702 19.5662ZM22.2958 0C28.8885 0.231749 34.5204 4.89983 35.9118 11.3888C37.502 18.3081 33.8578 25.3599 27.2983 28.1078C21.832 30.3591 15.5043 28.9355 11.5288 24.5654C10.7337 23.6715 10.7337 23.6715 9.7067 24.2674L3.14714 28.2071C2.02075 28.8693 1.55694 28.7368 0.894362 27.6112L0.298037 26.5187C-0.132641 25.989 -0.0663811 25.1944 0.496814 24.7309C0.596201 24.6316 0.728718 24.5654 0.828105 24.5323L7.58644 20.5925C8.61344 19.9966 8.58032 19.9966 8.28216 18.9041C5.92999 11.3557 10.0711 3.3107 17.5583 0.76146C18.1878 0.529711 18.8503 0.364176 19.5461 0.264855C20.4737 0.132428 21.3682 0.132428 22.2958 0ZM33.4603 14.6664C33.5265 8.30985 28.4578 3.07895 22.1301 2.94652C15.8356 2.94652 10.6674 7.97878 10.5349 14.2691C10.2699 20.6587 15.2724 26.0552 21.6663 26.32C21.6994 26.32 21.7657 26.32 21.7988 26.32C28.1927 26.3862 33.4271 21.2547 33.4603 14.865C33.4603 14.7657 33.4603 14.6995 33.4603 14.6664ZM78.7809 26.618C78.6815 26.6842 78.5821 26.7504 78.4827 26.8497C77.6214 28.0747 76.2962 28.8693 74.8054 29.0017C71.7907 29.5976 68.6765 28.5713 66.5894 26.2869C65.2973 24.7971 64.5023 22.9431 64.3697 20.9898C64.1047 18.9703 64.4029 16.9177 65.2974 15.0968C66.5231 12.6469 68.809 10.8922 71.4594 10.3294C74.9711 9.36927 78.7146 9.83277 81.8619 11.5874L82.1932 11.7861C83.3858 12.382 84.0816 13.6401 83.9822 14.9643V26.916C84.0153 27.1808 84.0153 27.4788 83.9822 27.7436C83.9159 28.2402 83.4852 28.6044 82.9883 28.5713H79.8742C79.2116 28.5713 78.8472 28.1409 78.7809 27.4126V26.618ZM78.7809 15.5272C78.814 15.163 78.6153 14.7988 78.284 14.6333C77.4557 14.2029 76.495 13.9711 75.5674 13.938C72.9833 13.4745 70.4655 15.1299 69.836 17.6791C69.5379 18.9041 69.5379 20.1952 69.836 21.4533C70.5318 24.0025 73.1489 25.5255 75.6999 24.8302C76.4287 24.6316 77.0913 24.2674 77.6545 23.7708C78.4165 23.208 78.8472 22.3141 78.7809 21.354C78.7146 19.4338 78.7146 17.4805 78.7809 15.5272ZM122.975 26.618C122.876 26.6842 122.743 26.7835 122.644 26.8828C121.849 28.0416 120.623 28.8031 119.232 29.0017C117.045 29.4321 114.792 29.0348 112.871 27.9092C110.916 26.6511 109.657 24.5654 109.425 22.2479C109.326 21.5857 109.293 20.9236 109.293 20.2615V12.0178C109.293 10.9253 109.624 10.5942 110.717 10.5942H113.169C113.798 10.528 114.362 11.0246 114.428 11.6536C114.428 11.753 114.428 11.8854 114.395 11.9847V20.427C114.362 21.5857 114.726 22.7445 115.455 23.6384C117.178 25.393 120.027 25.4261 121.782 23.6715C122.147 23.3073 122.478 22.8769 122.677 22.3803C122.71 22.1486 122.71 21.9168 122.677 21.7182V12.084C122.677 10.9915 123.041 10.6273 124.168 10.6273H126.52C127.481 10.6273 127.878 11.0577 127.878 12.0178V27.1808C127.878 28.2402 127.481 28.6375 126.454 28.6375H124.267C123.306 28.6375 122.942 28.2733 122.942 27.3132C122.975 27.3132 122.975 26.618 122.975 26.618ZM131.489 13.7394V6.58828C131.456 5.92615 131.787 5.29711 132.384 4.99915L135.034 3.44312L135.266 3.3107C135.697 3.07895 136.26 3.24448 136.492 3.67487C136.591 3.84041 136.624 4.00594 136.591 4.17148V9.86587C136.591 10.528 136.591 10.5611 137.287 10.5611H144.012C145.337 10.5611 145.602 10.826 145.635 12.1503V13.4083C145.635 14.2691 145.238 14.6664 144.377 14.6664H137.32C136.558 14.6664 136.558 14.6664 136.558 15.4278V20.129C136.558 20.7912 136.657 21.4533 136.856 22.1154C137.453 24.0357 139.374 25.2606 141.395 24.9626C142.455 24.8964 143.449 24.4991 144.244 23.8039L144.509 23.6384C144.807 23.3404 145.238 23.2742 145.602 23.4397C146 23.6715 145.967 24.0357 145.967 24.3998V26.0883C146 26.7835 145.635 27.4788 145.039 27.843C143.747 28.7037 142.19 29.1341 140.633 29.1341C138.91 29.2003 137.188 28.8362 135.63 28.0416C133.378 26.7835 131.92 24.5323 131.688 21.983C131.556 20.6587 131.489 19.3676 131.522 18.0433C131.456 16.5535 131.489 15.163 131.489 13.7394Z" fill="#212120"/>
<path id="Vector_2" d="M29.4849 16.0237V19.7317C29.4849 20.5925 29.1205 20.9236 28.2923 20.9236H25.4432C24.7806 20.9236 24.4824 20.6587 24.4824 19.9635V16.9839C24.4493 15.7589 23.5548 14.6995 22.329 14.5339C21.037 14.3684 19.8443 15.2292 19.5793 16.5204C19.5462 16.9839 19.5462 17.4142 19.5793 17.8777V19.9635C19.5793 20.6587 19.2812 20.9898 18.5854 20.9898H15.637C15.0406 21.056 14.5106 20.6256 14.4443 20.0628C14.4443 19.9966 14.4443 19.9304 14.4443 19.8642V12.4813C14.4112 11.8854 14.7093 11.3557 15.2394 11.0908C17.0946 10.0314 18.9499 8.97197 20.772 7.84633C21.5008 7.34973 22.4284 7.34973 23.1573 7.84633C25.0125 8.97197 26.9008 10.0645 28.7892 11.157C29.2199 11.3888 29.4849 11.8523 29.4518 12.3489V16.1231L29.4849 16.0237Z" fill="#212120"/>
</g>
</g>
<defs>
<clipPath id="clip0_348_587">
<rect width="146" height="39" fill="white"/>
</clipPath>
</defs>
</svg>
