<svg width="227" height="40" viewBox="0 0 227 40" fill="none" xmlns="http://www.w3.org/2000/svg">
<g id="bookingcom 1" clip-path="url(#clip0_337_13)">
<g id="Clip path group">
<mask id="mask0_337_13" style="mask-type:luminance" maskUnits="userSpaceOnUse" x="0" y="-1" width="227" height="41">
<g id="a">
<path id="Vector" d="M0.525574 -0.288307H226.523V39.5544H0.525574V-0.288307Z" fill="white"/>
</g>
</mask>
<g mask="url(#mask0_337_13)">
<g id="Group">
<g id="Clip path group_2">
<mask id="mask1_337_13" style="mask-type:luminance" maskUnits="userSpaceOnUse" x="0" y="-1" width="227" height="41">
<g id="b">
<path id="Vector_2" d="M0.525574 39.5544H226.523V-0.288307H0.525574V39.5544Z" fill="white"/>
</g>
</mask>
<g mask="url(#mask1_337_13)">
<g id="Group_2">
<path id="Vector_3" d="M89.1502 4.07263C89.1502 3.12632 89.512 2.21876 90.1561 1.54962C90.8001 0.88047 91.6737 0.504547 92.5845 0.504547C93.4953 0.504547 94.3688 0.88047 95.0128 1.54962C95.6568 2.21876 96.0186 3.12632 96.0186 4.07263C95.9855 4.9959 95.6091 5.86987 94.9687 6.51087C94.3283 7.15188 93.4737 7.51001 92.5845 7.51001C91.6953 7.51001 90.8406 7.15188 90.2001 6.51087C89.5597 5.86987 89.1834 4.9959 89.1502 4.07263Z" fill="#212120"/>
<path id="Vector_4" d="M143.335 27.8688C143.335 25.8885 144.87 24.2883 146.762 24.2883C147.675 24.2883 148.551 24.6653 149.197 25.3363C149.843 26.0073 150.205 26.9174 150.205 27.8663C150.205 28.8153 149.843 29.7253 149.197 30.3964C148.551 31.0674 147.675 31.4443 146.762 31.4443C144.872 31.4443 143.335 29.8417 143.335 27.8663" fill="#212120"/>
<path id="Vector_5" d="M32.7896 26.3208C29.8337 26.3208 27.777 23.8808 27.777 20.3923C27.777 16.9062 29.8336 14.4686 32.7919 14.4686C35.7646 14.4686 37.8428 16.9062 37.8428 20.3923C37.8428 23.9355 35.8101 26.3208 32.7896 26.3208ZM32.7896 9.25816C26.5334 9.25816 21.9919 13.9419 21.9919 20.3923C21.9919 26.8451 26.5358 31.5264 32.7896 31.5264C39.0721 31.5264 43.6302 26.8451 43.6302 20.3947C43.6302 13.9419 39.0697 9.25816 32.7896 9.25816ZM82.4994 20.9513C82.2817 20.5138 82.0064 20.1099 81.6815 19.7512L81.4902 19.545L81.6912 19.3462C81.9781 19.0306 82.2722 18.6579 82.5544 18.2256L88.0788 9.69796H81.3731L77.2237 16.3695C76.9893 16.7273 76.5159 16.9062 75.8057 16.9062H74.861V4.29365C74.861 1.77165 73.3472 1.42875 71.7138 1.42875H68.9156L68.9228 31.1984H74.8633V22.2682H75.4206C76.0974 22.2682 76.5565 22.3502 76.7693 22.7329L80.0457 29.1584C80.9616 30.9027 81.8728 31.1984 83.5899 31.1984H88.141L84.7499 25.3742L82.5019 20.9513M111.336 9.20846C108.313 9.20846 106.386 10.6049 105.305 11.7851L104.946 12.1628L104.817 11.6485C104.501 10.3837 103.43 9.6905 101.82 9.6905H99.1586L99.1754 31.1909H105.075V21.2818C105.075 20.3127 105.195 19.4729 105.443 18.7051C106.099 16.3819 107.931 14.9383 110.219 14.9383C112.061 14.9383 112.781 15.9496 112.781 18.5585V27.9235C112.781 30.1498 113.773 31.1909 115.918 31.1909H118.726L118.716 17.5149C118.716 12.0833 116.165 9.20846 111.336 9.20846ZM92.6561 9.69796H89.8604L89.8796 26.3233V31.1984H92.8618L92.967 31.2033L94.359 31.1984H95.7413V31.1909H95.7508L95.7627 12.9654C95.7627 10.7664 94.7512 9.70044 92.6586 9.70044M55.9608 26.3208C53.0049 26.3208 50.9459 23.8808 50.9459 20.3923C50.9459 16.9062 53.005 14.4686 55.9633 14.4686C58.9288 14.4686 61.0142 16.9062 61.0142 20.3923C61.0142 23.9355 58.9814 26.3208 55.9633 26.3208H55.9608ZM55.9608 9.25816C49.6999 9.25816 45.156 13.9419 45.156 20.3923C45.156 26.8451 49.6999 31.5264 55.9633 31.5264C62.2362 31.5264 66.8039 26.8451 66.8039 20.3947C66.8039 13.9419 62.2362 9.25816 55.9633 9.25816" fill="#212120"/>
</g>
</g>
</g>
</g>
</g>
</g>
<g id="Clip path group_3">
<mask id="mask2_337_13" style="mask-type:luminance" maskUnits="userSpaceOnUse" x="0" y="-1" width="227" height="41">
<g id="c">
<path id="Vector_6" d="M0.525574 -0.288307H226.523V39.5544H0.525574V-0.288307Z" fill="white"/>
</g>
</mask>
<g mask="url(#mask2_337_13)">
<g id="Group_3">
<g id="Clip path group_4">
<mask id="mask3_337_13" style="mask-type:luminance" maskUnits="userSpaceOnUse" x="0" y="0" width="227" height="40">
<g id="d">
<path id="Vector_7" d="M0.525574 0.496811H226.475V39.5022H0.525574V0.496811Z" fill="white"/>
</g>
</mask>
<g mask="url(#mask3_337_13)">
<g id="Group_4">
<g id="Clip path group_5">
<mask id="mask4_337_13" style="mask-type:luminance" maskUnits="userSpaceOnUse" x="0" y="-1" width="227" height="41">
<g id="e">
<path id="Vector_8" d="M0.525574 39.5544H226.523V-0.288307H0.525574V39.5544Z" fill="white"/>
</g>
</mask>
<g mask="url(#mask4_337_13)">
<g id="Group_5">
<path id="Vector_9" d="M182.412 26.3208C179.456 26.3208 177.394 23.8808 177.394 20.3923C177.394 16.9062 179.456 14.4686 182.412 14.4686C185.382 14.4686 187.465 16.9062 187.465 20.3923C187.465 23.9355 185.432 26.3208 182.412 26.3208ZM182.412 9.25816C176.151 9.25816 171.61 13.9419 171.61 20.3923C171.61 26.8451 176.151 31.5264 182.412 31.5264C188.687 31.5264 193.253 26.8451 193.253 20.3947C193.253 13.9419 188.685 9.25816 182.412 9.25816Z" fill="#212120"/>
<path id="Vector_10" d="M131.155 25.3741C127.929 25.3741 126.781 22.452 126.781 19.7114C126.781 18.5038 127.075 14.5705 130.846 14.5705C132.719 14.5705 135.213 15.127 135.213 19.9126C135.213 24.4274 133.006 25.3741 131.155 25.3741ZM138.277 9.64075C137.157 9.64075 136.296 10.1054 135.864 10.9527L135.701 11.2807L135.428 11.0322C134.476 10.1774 132.769 9.16119 129.997 9.16119C124.48 9.16119 120.766 13.4672 120.766 19.8704C120.766 26.2711 124.609 30.7436 130.107 30.7436C131.985 30.7436 133.47 30.2864 134.646 29.3621L135.101 29.0068V29.6031C135.101 32.4755 133.314 34.0607 130.074 34.0607C128.498 34.0607 127.065 33.6632 126.104 33.3004C124.855 32.9078 124.119 33.2333 123.614 34.5378L123.146 35.7404L122.483 37.4996L122.892 37.7257C124.968 38.8687 127.668 39.552 130.107 39.552C135.129 39.552 140.998 36.8809 140.998 29.3621L141.02 9.64075H138.277Z" fill="#212120"/>
</g>
</g>
</g>
</g>
</g>
</g>
</g>
</g>
</g>
<g id="Clip path group_6">
<mask id="mask5_337_13" style="mask-type:luminance" maskUnits="userSpaceOnUse" x="0" y="-1" width="227" height="41">
<g id="f">
<path id="Vector_11" d="M0.525574 -0.288307H226.523V39.5544H0.525574V-0.288307Z" fill="white"/>
</g>
</mask>
<g mask="url(#mask5_337_13)">
<g id="Group_6">
<g id="Clip path group_7">
<mask id="mask6_337_13" style="mask-type:luminance" maskUnits="userSpaceOnUse" x="0" y="-1" width="227" height="41">
<g id="g">
<path id="Vector_12" d="M0.525574 39.5544H226.523V-0.288307H0.525574V39.5544Z" fill="white"/>
</g>
</mask>
<g mask="url(#mask6_337_13)">
<g id="Group_7">
<path id="Vector_13" d="M10.821 26.0746L6.01886 26.0697V20.1063C6.01886 18.8291 6.49477 18.1682 7.54465 18.0141H10.821C13.1575 18.0141 14.6689 19.5447 14.6713 22.022C14.6689 24.5664 13.1958 26.0721 10.821 26.0721V26.0746ZM6.01886 9.98348V8.41312C6.01886 7.03906 6.5785 6.38558 7.80534 6.3011H10.2639C12.3708 6.3011 13.6335 7.61055 13.6335 9.80457C13.6335 11.4743 12.7677 13.4248 10.3403 13.4248H6.01886V9.98348ZM16.9529 15.9369L16.0847 15.43L16.8428 14.7567C17.7253 13.969 19.2009 12.1974 19.2009 9.14115C19.2009 4.45991 15.7093 1.43847 10.3021 1.43847H3.42884C2.65546 1.46776 1.92261 1.80509 1.3821 2.38055C0.841594 2.95601 0.534887 3.72547 0.525574 4.52948V31.0913H10.424C16.4338 31.0913 20.3129 27.6922 20.3129 22.427C20.3129 19.592 19.0598 17.1693 16.9529 15.9369Z" fill="#212120"/>
<path id="Vector_14" d="M219.605 9.28041C218.387 9.28507 217.185 9.57396 216.089 10.1257C214.993 10.6775 214.03 11.4781 213.272 12.4683L212.846 13.0299L212.511 12.4012C211.416 10.3314 209.536 9.28041 206.922 9.28041C204.179 9.28041 202.34 10.8706 201.487 11.8148L200.927 12.4435L200.712 11.6161C200.401 10.4234 199.38 9.7699 197.835 9.7699H195.355L195.331 31.1883H200.963V21.7339C200.963 20.904 201.063 20.0865 201.262 19.2293C201.8 16.9433 203.278 14.4859 205.762 14.7319C207.293 14.886 208.044 16.1159 208.044 18.4913V31.1883H213.717V21.7339C213.717 20.6978 213.81 19.9225 214.035 19.1473C214.489 16.9657 216.034 14.7294 218.43 14.7294C220.167 14.7294 220.807 15.7482 220.807 18.4913V28.0576C220.807 30.2193 221.735 31.1883 223.818 31.1883H226.468L226.473 17.5148C226.473 12.0509 224.158 9.28041 219.605 9.28041ZM168.345 23.7515C168.328 23.7739 165.906 26.4276 162.713 26.4276C159.805 26.4276 156.868 24.574 156.868 20.4369C156.868 16.8638 159.145 14.3667 162.407 14.3667C163.464 14.3667 164.669 14.7592 164.858 15.4227L164.885 15.5345C165.005 15.9912 165.267 16.3939 165.63 16.6801C165.994 16.9662 166.437 17.1199 166.893 17.1173L169.978 17.1222V14.3194C169.978 10.6222 165.451 9.28041 162.407 9.28041C155.892 9.28041 151.167 13.9915 151.167 20.4816C151.167 26.9668 155.84 31.6729 162.287 31.6729C167.879 31.6729 170.921 27.8538 170.949 27.8165L171.112 27.6078L168.668 23.3962L168.345 23.7515Z" fill="#212120"/>
</g>
</g>
</g>
</g>
</g>
</g>
</g>
<defs>
<clipPath id="clip0_337_13">
<rect width="227" height="40" fill="white"/>
</clipPath>
</defs>
</svg>
