<svg width="46" height="46" viewBox="0 0 46 46" fill="none" xmlns="http://www.w3.org/2000/svg">
<g id="checklist">
<path id="Vector" d="M5 2H1C0.734784 2 0.48043 2.10536 0.292893 2.29289C0.105357 2.48043 0 2.73478 0 3V45C0 45.2652 0.105357 45.5196 0.292893 45.7071C0.48043 45.8946 0.734784 46 1 46H5C5.26522 46 5.51957 45.8946 5.70711 45.7071C5.89464 45.5196 6 45.2652 6 45V3C6 2.73478 5.89464 2.48043 5.70711 2.29289C5.51957 2.10536 5.26522 2 5 2ZM4 4V8H2V4H4ZM2 44V10H4V44H2Z" fill="#212120"/>
<path id="Vector_2" d="M45 2H39.86C39.5948 2 39.3404 2.10536 39.1529 2.29289C38.9654 2.48043 38.86 2.73478 38.86 3C38.86 3.26522 38.9654 3.51957 39.1529 3.70711C39.3404 3.89464 39.5948 4 39.86 4H44V44H10V4H14.28C14.5452 4 14.7996 3.89464 14.9871 3.70711C15.1746 3.51957 15.28 3.26522 15.28 3C15.28 2.73478 15.1746 2.48043 14.9871 2.29289C14.7996 2.10536 14.5452 2 14.28 2H9C8.73478 2 8.48043 2.10536 8.29289 2.29289C8.10536 2.48043 8 2.73478 8 3V45C8 45.2652 8.10536 45.5196 8.29289 45.7071C8.48043 45.8946 8.73478 46 9 46H45C45.2652 46 45.5196 45.8946 45.7071 45.7071C45.8946 45.5196 46 45.2652 46 45V3C46 2.73478 45.8946 2.48043 45.7071 2.29289C45.5196 2.10536 45.2652 2 45 2Z" fill="#212120"/>
<path id="Vector_3" d="M29.86 4H34.28C34.5452 4 34.7996 3.89464 34.9871 3.70711C35.1746 3.51957 35.28 3.26522 35.28 3C35.28 2.73478 35.1746 2.48043 34.9871 2.29289C34.7996 2.10536 34.5452 2 34.28 2H29.86C29.5948 2 29.3404 2.10536 29.1529 2.29289C28.9654 2.48043 28.86 2.73478 28.86 3C28.86 3.26522 28.9654 3.51957 29.1529 3.70711C29.3404 3.89464 29.5948 4 29.86 4Z" fill="#212120"/>
<path id="Vector_4" d="M19.74 4H24.28C24.5452 4 24.7996 3.89464 24.9871 3.70711C25.1746 3.51957 25.28 3.26522 25.28 3C25.28 2.73478 25.1746 2.48043 24.9871 2.29289C24.7996 2.10536 24.5452 2 24.28 2H19.74C19.4748 2 19.2204 2.10536 19.0329 2.29289C18.8454 2.48043 18.74 2.73478 18.74 3C18.74 3.26522 18.8454 3.51957 19.0329 3.70711C19.2204 3.89464 19.4748 4 19.74 4Z" fill="#212120"/>
<path id="Vector_5" d="M17 6C17.2652 6 17.5196 5.89464 17.7071 5.70711C17.8946 5.51957 18 5.26522 18 5V1C18 0.734784 17.8946 0.48043 17.7071 0.292893C17.5196 0.105357 17.2652 0 17 0C16.7348 0 16.4804 0.105357 16.2929 0.292893C16.1054 0.48043 16 0.734784 16 1V5C16 5.26522 16.1054 5.51957 16.2929 5.70711C16.4804 5.89464 16.7348 6 17 6Z" fill="#212120"/>
<path id="Vector_6" d="M27 6C27.2652 6 27.5196 5.89464 27.7071 5.70711C27.8946 5.51957 28 5.26522 28 5V1C28 0.734784 27.8946 0.48043 27.7071 0.292893C27.5196 0.105357 27.2652 0 27 0C26.7348 0 26.4804 0.105357 26.2929 0.292893C26.1054 0.48043 26 0.734784 26 1V5C26 5.26522 26.1054 5.51957 26.2929 5.70711C26.4804 5.89464 26.7348 6 27 6Z" fill="#212120"/>
<path id="Vector_7" d="M37 6C37.2652 6 37.5196 5.89464 37.7071 5.70711C37.8946 5.51957 38 5.26522 38 5V1C38 0.734784 37.8946 0.48043 37.7071 0.292893C37.5196 0.105357 37.2652 0 37 0C36.7348 0 36.4804 0.105357 36.2929 0.292893C36.1054 0.48043 36 0.734784 36 1V5C36 5.26522 36.1054 5.51957 36.2929 5.70711C36.4804 5.89464 36.7348 6 37 6Z" fill="#212120"/>
<path id="Vector_8" d="M14.3 12.3C14.2043 12.3898 14.1281 12.4982 14.076 12.6186C14.0239 12.739 13.997 12.8688 13.997 13C13.997 13.1312 14.0239 13.261 14.076 13.3814C14.1281 13.5018 14.2043 13.6102 14.3 13.7L16.3 15.7C16.3893 15.7961 16.4977 15.8724 16.6183 15.9241C16.7388 15.9758 16.8688 16.0016 17 16H17.16C17.3388 15.9963 17.5128 15.9416 17.6616 15.8424C17.8103 15.7432 17.9278 15.6036 18 15.44L20 11.44C20.1167 11.2013 20.1338 10.9261 20.0475 10.6748C19.9613 10.4235 19.7787 10.2167 19.54 10.1C19.3013 9.98333 19.026 9.96624 18.7747 10.0525C18.5234 10.1388 18.3167 10.3213 18.2 10.56L16.72 13.32L15.7 12.3C15.6102 12.2044 15.5018 12.1281 15.3814 12.076C15.261 12.0239 15.1312 11.997 15 11.997C14.8688 11.997 14.739 12.0239 14.6186 12.076C14.4982 12.1281 14.3898 12.2044 14.3 12.3Z" fill="#212120"/>
<path id="Vector_9" d="M19.44 18.1C19.2006 17.9882 18.9271 17.9736 18.6771 18.0594C18.4272 18.1452 18.2203 18.3247 18.1 18.56L16.72 21.32L15.7 20.3C15.6081 20.2081 15.4989 20.1352 15.3788 20.0854C15.2587 20.0357 15.13 20.0101 15 20.0101C14.87 20.0101 14.7413 20.0357 14.6212 20.0854C14.5011 20.1352 14.3919 20.2081 14.3 20.3C14.2081 20.3919 14.1352 20.5011 14.0854 20.6212C14.0357 20.7413 14.0101 20.87 14.0101 21C14.0101 21.13 14.0357 21.2587 14.0854 21.3789C14.1352 21.499 14.2081 21.6081 14.3 21.7L16.3 23.7C16.3893 23.7961 16.4977 23.8724 16.6183 23.9241C16.7388 23.9758 16.8689 24.0016 17 24H17.16C17.3192 23.9806 17.4707 23.9208 17.6002 23.8263C17.7298 23.7317 17.833 23.6057 17.9 23.46L19.9 19.46C20.018 19.2185 20.0359 18.9401 19.9498 18.6854C19.8637 18.4307 19.6804 18.2203 19.44 18.1Z" fill="#212120"/>
<path id="Vector_10" d="M19.44 26.1C19.2006 25.9882 18.9271 25.9736 18.6771 26.0594C18.4272 26.1452 18.2203 26.3247 18.1 26.56L16.72 29.32L15.7 28.3C15.5144 28.1144 15.2626 28.0101 15 28.0101C14.7375 28.0101 14.4857 28.1144 14.3 28.3C14.1144 28.4857 14.0101 28.7375 14.0101 29C14.0101 29.2626 14.1144 29.5144 14.3 29.7L16.3 31.7C16.3893 31.7961 16.4977 31.8724 16.6183 31.9241C16.7388 31.9757 16.8689 32.0016 17 32H17.16C17.3192 31.9806 17.4707 31.9208 17.6002 31.8263C17.7298 31.7317 17.833 31.6057 17.9 31.46L19.9 27.46C20.018 27.2185 20.0359 26.9401 19.9498 26.6854C19.8637 26.4307 19.6804 26.2203 19.44 26.1Z" fill="#212120"/>
<path id="Vector_11" d="M19.44 34.1C19.2006 33.9882 18.9271 33.9736 18.6771 34.0594C18.4272 34.1452 18.2203 34.3247 18.1 34.56L16.72 37.32L15.7 36.3C15.6081 36.2081 15.4989 36.1352 15.3788 36.0854C15.2587 36.0357 15.13 36.0101 15 36.0101C14.87 36.0101 14.7413 36.0357 14.6212 36.0854C14.5011 36.1352 14.3919 36.2081 14.3 36.3C14.2081 36.3919 14.1352 36.5011 14.0854 36.6212C14.0357 36.7413 14.0101 36.87 14.0101 37C14.0101 37.13 14.0357 37.2587 14.0854 37.3789C14.1352 37.499 14.2081 37.6081 14.3 37.7L16.3 39.7C16.3893 39.7961 16.4977 39.8724 16.6183 39.9241C16.7388 39.9757 16.8689 40.0016 17 40H17.16C17.3192 39.9806 17.4707 39.9208 17.6002 39.8263C17.7298 39.7317 17.833 39.6057 17.9 39.46L19.9 35.46C20.018 35.2185 20.0359 34.9401 19.9498 34.6854C19.8637 34.4307 19.6804 34.2203 19.44 34.1Z" fill="#212120"/>
<path id="Vector_12" d="M39 12H25C24.7348 12 24.4804 12.1054 24.2929 12.2929C24.1054 12.4804 24 12.7348 24 13C24 13.2652 24.1054 13.5196 24.2929 13.7071C24.4804 13.8946 24.7348 14 25 14H39C39.2652 14 39.5196 13.8946 39.7071 13.7071C39.8946 13.5196 40 13.2652 40 13C40 12.7348 39.8946 12.4804 39.7071 12.2929C39.5196 12.1054 39.2652 12 39 12Z" fill="#212120"/>
<path id="Vector_13" d="M39 20H25C24.7348 20 24.4804 20.1054 24.2929 20.2929C24.1054 20.4804 24 20.7348 24 21C24 21.2652 24.1054 21.5196 24.2929 21.7071C24.4804 21.8946 24.7348 22 25 22H39C39.2652 22 39.5196 21.8946 39.7071 21.7071C39.8946 21.5196 40 21.2652 40 21C40 20.7348 39.8946 20.4804 39.7071 20.2929C39.5196 20.1054 39.2652 20 39 20Z" fill="#212120"/>
<path id="Vector_14" d="M39 28H25C24.7348 28 24.4804 28.1054 24.2929 28.2929C24.1054 28.4804 24 28.7348 24 29C24 29.2652 24.1054 29.5196 24.2929 29.7071C24.4804 29.8946 24.7348 30 25 30H39C39.2652 30 39.5196 29.8946 39.7071 29.7071C39.8946 29.5196 40 29.2652 40 29C40 28.7348 39.8946 28.4804 39.7071 28.2929C39.5196 28.1054 39.2652 28 39 28Z" fill="#212120"/>
<path id="Vector_15" d="M39 36H25C24.7348 36 24.4804 36.1054 24.2929 36.2929C24.1054 36.4804 24 36.7348 24 37C24 37.2652 24.1054 37.5196 24.2929 37.7071C24.4804 37.8946 24.7348 38 25 38H39C39.2652 38 39.5196 37.8946 39.7071 37.7071C39.8946 37.5196 40 37.2652 40 37C40 36.7348 39.8946 36.4804 39.7071 36.2929C39.5196 36.1054 39.2652 36 39 36Z" fill="#212120"/>
</g>
</svg>
