<svg width="66" height="43" viewBox="0 0 66 43" fill="none" xmlns="http://www.w3.org/2000/svg">
<g opacity="0.65">
<path fill-rule="evenodd" clip-rule="evenodd" d="M24.177 9.7423V1.02378H26.09C26.6644 1.02575 27.2147 1.26523 27.621 1.68998C28.0273 2.11474 28.2566 2.69033 28.2588 3.29122V9.02784H25.83C25.2232 9.0827 24.6474 9.33222 24.1812 9.7423H24.177Z" fill="white"/>
<path fill-rule="evenodd" clip-rule="evenodd" d="M37.3769 0.971468C39.1117 1.00924 40.762 1.76175 41.9693 3.06545C43.1766 4.36914 43.8433 6.11865 43.8245 7.93373C43.8057 9.74882 43.1029 11.4828 41.8688 12.7588C40.6347 14.0347 38.9692 14.7496 37.2341 14.748C34.2523 14.748 31.2477 14.6778 28.2574 14.6778V19.6327C28.254 20.7212 27.8391 21.7641 27.1032 22.5336C26.3673 23.3032 25.3703 23.7369 24.3298 23.7401H19.2793C18.2384 23.7373 17.2409 23.3038 16.5045 22.5342C15.7681 21.7647 15.3527 20.7216 15.3489 19.6327V10.1578L18.0392 10.1847C19.0321 10.2908 19.6108 11.2983 19.6465 11.8139V17.15C19.6491 17.7778 19.889 18.3791 20.3138 18.8226C20.7385 19.2662 21.3137 19.516 21.9139 19.5176H24.177V12.3685C24.1777 11.7558 24.4104 11.1684 24.8241 10.7348C25.2377 10.3012 25.7987 10.0567 26.3843 10.0547H37.3769C38.6714 10.0547 39.7215 9.00841 39.7215 7.71401C39.7215 6.41961 38.6628 5.37034 37.3769 5.37034V0.971468Z" fill="white"/>
<path fill-rule="evenodd" clip-rule="evenodd" d="M17.5177 1.02378H19.6465V9.70643C18.3921 8.5032 16.1433 8.78121 15.3489 8.92769V3.29122C15.3511 2.69033 15.5804 2.11474 15.9867 1.68998C16.393 1.26523 16.9433 1.02575 17.5177 1.02378Z" fill="white"/>
<path fill-rule="evenodd" clip-rule="evenodd" d="M63.4612 1.02378H66V21.501C66 22.0956 65.7742 22.6659 65.3723 23.0864C64.9704 23.5068 64.4253 23.743 63.8569 23.743H61.7138V2.85179C61.715 2.36813 61.8991 1.90461 62.226 1.56261C62.5529 1.22061 62.996 1.02796 63.4583 1.02677L63.4612 1.02378Z" fill="white"/>
<path fill-rule="evenodd" clip-rule="evenodd" d="M3.9891 5.30457H6.39507C7.03297 5.30654 7.64421 5.57252 8.09527 6.04441C8.54634 6.51631 8.80058 7.15576 8.80247 7.82312V16.9975C8.80096 17.6651 8.54689 18.305 8.09578 18.7772C7.64467 19.2494 7.03322 19.5156 6.39507 19.5176H3.9891V5.30457ZM0.00438737 1.02378H8.97963C10.0205 1.02654 11.018 1.46003 11.7544 2.22959C12.4908 2.99915 12.9063 4.04227 12.91 5.13119V19.6297C12.9063 20.7186 12.4908 21.7617 11.7544 22.5313C11.018 23.3008 10.0205 23.7343 8.97963 23.7371H0.00438737V1.02378Z" fill="white"/>
<path fill-rule="evenodd" clip-rule="evenodd" d="M42.9204 13.1965C43.3933 14.1492 43.6589 15.1995 43.6982 16.2722C43.7375 17.3448 43.5494 18.4133 43.1476 19.401C42.7457 20.3887 42.1399 21.2712 41.3737 21.9852C40.6075 22.6992 39.6998 23.227 38.7157 23.5308C36.8197 24.1137 34.7767 23.7401 32.8236 23.7401C32.2708 23.7385 31.7411 23.5081 31.3503 23.0991C30.9594 22.6902 30.7392 22.1361 30.7377 21.5578L30.7862 15.742L35.0724 15.6941V17.1066C35.0721 17.5069 35.1662 17.9011 35.3463 18.2542C35.5264 18.6073 35.787 18.9085 36.105 19.1311C36.423 19.3537 36.7886 19.4907 37.1693 19.5302C37.5501 19.5696 37.9342 19.5101 38.2878 19.3571C38.6413 19.204 38.9533 18.9621 39.196 18.6527C39.4388 18.3434 39.6049 17.9761 39.6796 17.5836C39.7543 17.191 39.7352 16.7852 39.6242 16.4022C39.5131 16.0192 39.3134 15.6707 39.0428 15.3877C41.0573 15.3877 42.3875 13.914 42.9147 13.1935L42.9204 13.1965Z" fill="white"/>
<path fill-rule="evenodd" clip-rule="evenodd" d="M36.234 15.6912H37.3769C37.6801 15.6912 37.9708 15.8171 38.1852 16.0414C38.3995 16.2656 38.5199 16.5698 38.5199 16.8869C38.5199 17.204 38.3995 17.5082 38.1852 17.7324C37.9708 17.9567 37.6801 18.0827 37.3769 18.0827C37.0738 18.0827 36.7831 17.9567 36.5687 17.7324C36.3544 17.5082 36.234 17.204 36.234 16.8869V15.6912Z" fill="white"/>
<path fill-rule="evenodd" clip-rule="evenodd" d="M46.3422 15.8062H50.4755V21.5787C50.4736 22.1513 50.2553 22.6999 49.8683 23.1048C49.4813 23.5097 48.9569 23.7381 48.4095 23.7401H46.3422V15.8062Z" fill="white"/>
<path fill-rule="evenodd" clip-rule="evenodd" d="M59.2236 13.6659C58.2706 15.1023 56.8476 15.739 55.0917 15.8062V21.5787C55.0936 22.1513 55.3118 22.6999 55.6989 23.1048C56.0859 23.5097 56.6103 23.7381 57.1576 23.7401H59.2236V13.6659Z" fill="white"/>
<path fill-rule="evenodd" clip-rule="evenodd" d="M50.4755 9.03681C48.0095 9.00243 47.6295 8.66612 46.3422 9.83348V5.09382C46.3422 3.04311 48.3653 1.10599 50.0726 1.10599H51.3884C50.817 1.43333 50.4983 1.98935 50.4755 2.80993V9.03681Z" fill="white"/>
<path fill-rule="evenodd" clip-rule="evenodd" d="M46.3279 14.5776H55.0103C56.1674 14.5756 57.2768 14.0943 58.0955 13.2388C58.9143 12.3833 59.3759 11.2234 59.3793 10.0128V5.50486C59.3762 4.3626 58.9654 3.26273 58.2275 2.42081C57.4896 1.57888 56.4778 1.05561 55.3903 0.953533L53.6315 0.908691C53.0911 0.911059 52.5736 1.13699 52.1919 1.53717C51.8102 1.93735 51.5953 2.47926 51.5942 3.0446V5.15062L51.5742 5.17902H52.7729C53.4091 5.18099 54.0188 5.44639 54.4685 5.9172C54.9183 6.38801 55.1716 7.02595 55.1731 7.69159C55.1712 8.35682 54.9177 8.99422 54.4679 9.46448C54.0182 9.93473 53.4088 10.1996 52.7729 10.2012C51.307 10.2012 49.8611 10.2296 48.4095 10.2296C47.8581 10.2308 47.3295 10.4604 46.9394 10.8682C46.5493 11.276 46.3294 11.8289 46.3279 12.4058V14.5776Z" fill="white"/>
<path fill-rule="evenodd" clip-rule="evenodd" d="M18.9836 24.7923H20.1265C20.4297 24.7923 20.7204 24.9183 20.9347 25.1425C21.1491 25.3668 21.2695 25.6709 21.2695 25.9881C21.2695 26.3052 21.1491 26.6093 20.9347 26.8336C20.7204 27.0578 20.4297 27.1838 20.1265 27.1838C19.824 27.1819 19.5343 27.0552 19.3204 26.8314C19.1064 26.6076 18.9854 26.3046 18.9836 25.9881V24.7923Z" fill="white"/>
<path fill-rule="evenodd" clip-rule="evenodd" d="M22.4025 24.7923H23.5455C23.8486 24.7923 24.1393 24.9183 24.3537 25.1425C24.568 25.3668 24.6884 25.6709 24.6884 25.9881C24.6884 26.3052 24.568 26.6093 24.3537 26.8336C24.1393 27.0578 23.8486 27.1838 23.5455 27.1838C23.2423 27.1838 22.9516 27.0578 22.7373 26.8336C22.5229 26.6093 22.4025 26.3052 22.4025 25.9881V24.7923Z" fill="white"/>
<path fill-rule="evenodd" clip-rule="evenodd" d="M30.8334 0.980437H36.234V5.79782C35.871 5.91489 35.5532 6.15009 35.3268 6.46919C35.1004 6.78829 34.9773 7.17463 34.9753 7.57201V8.91723H30.832L30.8334 0.980437Z" fill="white"/>
<path d="M64.997 30.7606C64.997 31.5079 64.997 32.2553 64.997 33.0026C64.997 33.7096 64.7027 34.016 64.0284 34.0295C63.484 34.04 62.9125 34.1356 62.4053 33.9921C61.8981 33.8486 61.5195 33.892 61.0309 33.9921C60.2826 34.1274 59.5176 34.1274 58.7692 33.9921C58.2735 33.9054 57.8548 33.8068 57.3405 33.9921C57.1387 34.0777 56.9178 34.1013 56.7036 34.06C56.4895 34.0187 56.2911 33.9142 56.1318 33.7589C56.0346 33.6558 55.9704 33.7141 55.8775 33.7724C55.2903 34.1461 54.6902 34.17 54.1116 33.7724C53.9773 33.6782 53.9373 33.741 53.8258 33.7903C53.0229 34.164 52.2085 34.1924 51.4099 33.7829C51.287 33.7216 51.2256 33.6932 51.1241 33.7829C50.8812 34.0041 50.5855 34.0325 50.2798 34.0325C48.9196 34.0325 47.5652 34.0325 46.2022 34.0325C45.3449 34.0325 45.0806 33.7604 45.0778 32.8487C45.0778 31.4123 45.0778 29.9744 45.0778 28.538C45.0778 28.2585 45.1006 28.0971 45.4378 28.0971C45.775 28.0971 45.8007 28.2465 45.7993 28.529C45.7864 29.8907 45.7893 31.2524 45.7993 32.614C45.7993 33.2792 45.8464 33.3255 46.4822 33.327C47.6833 33.327 48.8848 33.327 50.0869 33.327C50.6212 33.327 50.6584 33.2747 50.6669 32.7007C50.6669 32.0729 50.6741 31.4437 50.6669 30.8159C50.6669 30.5528 50.7341 30.4377 51.0084 30.4452C51.257 30.4452 51.4184 30.4766 51.4113 30.801C51.397 31.3988 51.4042 31.9967 51.4113 32.5946C51.4113 33.0893 51.6113 33.3016 52.0828 33.3195C52.3685 33.3315 52.6543 33.3195 52.94 33.3195C53.2758 33.333 53.4044 33.1611 53.3987 32.8293C53.3987 32.4092 53.4115 31.9892 53.3901 31.5722C53.3744 31.2733 53.4772 31.1791 53.7558 31.1761C54.0344 31.1731 54.1202 31.3062 54.1044 31.5857C54.0859 31.9429 54.0902 32.3046 54.1044 32.6633C54.1216 33.1327 54.3816 33.312 54.9402 33.3255C55.3932 33.336 55.4546 33.0549 55.4503 32.6873C55.4503 32.3584 55.4503 32.0296 55.4503 31.6993C55.4503 31.4287 55.3946 31.1642 55.8161 31.1716C56.2375 31.1791 56.1518 31.4706 56.1532 31.7262C56.1532 32.055 56.1532 32.3853 56.1532 32.7142C56.1661 33.1626 56.409 33.312 56.9705 33.3255C57.3991 33.333 57.4648 33.0923 57.4577 32.7276C57.4448 32.0834 57.4648 31.4407 57.4505 30.7965C57.4505 30.4781 57.5934 30.4407 57.8506 30.4378C58.1077 30.4348 58.1963 30.5439 58.1906 30.8084C58.1792 31.4213 58.1992 32.0356 58.1906 32.6499C58.182 33.0878 58.4106 33.2941 58.7864 33.309C59.4436 33.333 60.1022 33.3195 60.7594 33.318C61.1095 33.318 61.128 33.0624 61.128 32.7904C61.128 31.3689 61.1281 29.9505 61.118 28.5246C61.118 28.245 61.1438 28.0866 61.4809 28.0926C61.7881 28.0926 61.8653 28.1972 61.8624 28.5051C61.8481 29.8503 61.8553 31.1956 61.8624 32.5408C61.8624 33.1073 62.0339 33.2956 62.5768 33.3135C62.9768 33.3255 63.3783 33.2986 63.7783 33.321C64.1784 33.3434 64.3012 33.1491 64.2984 32.7575C64.2884 31.351 64.2984 29.9445 64.2884 28.5365C64.2884 28.2181 64.3527 28.0761 64.6899 28.0881C64.9627 28.0971 65.0242 28.1987 65.0199 28.4618C65.0056 29.2256 65.0199 29.9893 65.0199 30.7516L64.997 30.7606Z" fill="white"/>
<path d="M39.9172 34.031C38.9885 34.031 38.0599 34.031 37.1312 34.031C36.7183 34.031 36.324 33.9966 36.1125 33.5392C36.0211 33.3434 35.8968 33.469 35.7882 33.5138C35.3995 33.675 34.9688 33.6872 34.5724 33.5482C33.8323 33.3001 33.5251 32.6409 33.6465 31.6185C33.7351 30.8802 34.2966 30.3481 35.051 30.2987C35.2653 30.2853 35.4796 30.2883 35.6939 30.2987C35.8625 30.2987 36.0154 30.2987 36.0211 30.0656C36.0211 29.9161 36.0997 29.9161 36.2368 29.8997C36.6654 29.8503 36.7583 30.0491 36.7483 30.4437C36.7297 31.221 36.7483 31.9997 36.7397 32.7769C36.7326 33.167 36.8526 33.3419 37.2584 33.3389C39.03 33.3225 40.8016 33.3389 42.5732 33.3315C43.1647 33.3315 43.3061 33.182 43.3204 32.5647C43.3194 32.3703 43.2998 32.1765 43.2619 31.9862C43.0918 31.0386 42.2346 30.6859 41.4774 31.2509C41.3602 31.3361 41.2802 31.5154 41.0759 31.4153C40.7273 31.2434 40.6873 31.0087 40.9759 30.7427C41.9917 29.804 43.6905 30.36 43.9991 31.7307C44.097 32.184 44.1111 32.6528 44.0405 33.1117C43.9505 33.7485 43.6019 34.0265 42.8761 34.034C41.8903 34.0399 40.9045 34.031 39.9172 34.031ZM36.0497 31.6081C36.0325 31.0102 36.0325 31.0102 35.4682 31.0027H35.3396C34.5995 31.0027 34.3166 31.3166 34.3466 32.1043C34.3652 32.605 34.6109 32.8965 35.061 32.9533C35.1633 32.9733 35.2685 32.9714 35.3701 32.9476C35.4717 32.9239 35.5677 32.8787 35.6521 32.815C35.7365 32.7513 35.8077 32.6702 35.8613 32.5769C35.9149 32.4835 35.9498 32.3797 35.9639 32.2717C36.0082 32.0535 36.0211 31.8293 36.0497 31.6081Z" fill="white"/>
<path d="M23.9698 31.9713C23.9698 31.4168 23.9698 30.8637 23.9698 30.3107C23.9698 30.1732 23.9026 29.9654 24.0927 29.9311C24.2827 29.8967 24.5299 29.798 24.6456 30.0103C24.7613 30.2225 24.8442 30.1134 24.9656 30.0402C25.5914 29.665 26.2629 29.7128 26.7787 30.221C27.0058 30.4452 27.093 30.2614 27.2259 30.1523C28.0245 29.4961 29.2118 29.7412 29.559 30.635C29.6381 30.844 29.6797 31.0665 29.6818 31.2912C29.6818 32.0983 29.6747 32.907 29.6947 33.7141C29.7033 34.0414 29.5518 34.0639 29.3032 34.0713C29.0303 34.0803 28.9603 33.9652 28.9632 33.7051C28.9718 32.9727 28.9789 32.2403 28.956 31.5079C28.9446 31.1313 28.8703 30.7337 28.4688 30.5887C28.1031 30.4572 27.7373 30.4751 27.4345 30.7935C27.3471 30.8938 27.2808 31.0121 27.2397 31.1408C27.1987 31.2695 27.1837 31.4057 27.1959 31.5408C27.1959 32.2583 27.1801 32.9772 27.1959 33.6947C27.203 33.9936 27.1044 34.0758 26.8272 34.0758C26.5501 34.0758 26.4372 34.0071 26.4444 33.7021C26.4601 32.9847 26.4586 32.2658 26.4444 31.5483C26.4358 30.8802 26.11 30.502 25.5743 30.514C25.0385 30.5259 24.7042 30.9041 24.6913 31.5528C24.6756 32.2553 24.6713 32.9593 24.6913 33.6618C24.6913 33.9607 24.6199 34.0743 24.3113 34.0803C23.9612 34.0803 23.9555 33.9054 23.9612 33.6319C23.9741 33.0789 23.9612 32.5258 23.9612 31.9728L23.9698 31.9713Z" fill="white"/>
<path d="M8.24384 31.9982C8.25456 32.2068 8.25456 32.4159 8.24384 32.6245C8.21418 33.0396 8.03918 33.4286 7.75234 33.7171C7.46551 34.0056 7.08703 34.1733 6.68939 34.1879C5.79215 34.2343 5.11779 33.7261 4.93634 32.8233C4.8206 32.2823 4.81719 31.7216 4.92634 31.1791C5.13208 30.1866 5.78358 29.7337 6.83512 29.8204C7.59805 29.8832 8.18526 30.5409 8.25384 31.4168C8.26813 31.6111 8.25384 31.8054 8.25384 32.0012L8.24384 31.9982ZM7.54519 31.9982C7.55317 31.7746 7.53542 31.5508 7.49233 31.3316C7.34946 30.8159 7.00799 30.4916 6.56651 30.496C6.12504 30.5005 5.76643 30.8039 5.64499 31.339C5.54872 31.808 5.55703 32.2939 5.66928 32.759C5.71818 32.9713 5.83372 33.1603 5.99741 33.2958C6.16111 33.4313 6.3635 33.5054 6.57223 33.5063C6.7728 33.5023 6.96701 33.432 7.12712 33.3056C7.28723 33.1792 7.40506 33.003 7.46375 32.8023C7.53481 32.5412 7.56235 32.2692 7.54519 31.9982Z" fill="white"/>
<path d="M1.706 31.4825C1.706 30.78 1.69457 30.076 1.706 29.3735C1.71457 29.0477 1.66028 28.8683 1.29024 28.9132C0.994493 28.9505 0.690176 28.9132 0.390144 28.9206C0.127258 28.9206 -0.00418464 28.8369 0.000101531 28.5335C0.0043877 28.2301 0.092969 28.1299 0.374428 28.1314C1.51741 28.1404 2.66039 28.1404 3.80336 28.1314C4.08911 28.1314 4.1334 28.2675 4.13197 28.5201C4.13054 28.7727 4.10625 28.9311 3.81622 28.9162C3.5019 28.9012 3.18473 28.9326 2.87184 28.9087C2.55895 28.8848 2.45465 29.0043 2.45751 29.3406C2.47322 30.7606 2.45036 32.1806 2.47179 33.6035C2.47179 33.9906 2.35464 34.0893 2.00889 34.0713C1.76315 34.0579 1.68885 33.9742 1.69314 33.7276C1.71171 32.9787 1.706 32.2314 1.706 31.4825Z" fill="white"/>
<path d="M21.2009 29.816C21.5746 29.7961 21.9466 29.8813 22.2782 30.0626C22.4339 30.1433 22.6682 30.2121 22.5468 30.4766C22.4411 30.7098 22.2882 30.8637 22.0039 30.6978C21.7182 30.5211 21.3875 30.4407 21.0566 30.4676C20.7452 30.5005 20.4366 30.5723 20.4123 30.9818C20.388 31.3914 20.6695 31.502 20.9966 31.5378C21.2095 31.5618 21.4252 31.5946 21.6338 31.6186C22.3411 31.6978 22.7411 32.0789 22.7768 32.7142C22.8102 33.0308 22.729 33.349 22.5491 33.6061C22.3693 33.8631 22.1039 34.0403 21.8053 34.1027C21.4649 34.1953 21.1101 34.2139 20.7626 34.1574C20.4151 34.1008 20.0824 33.9703 19.7851 33.7739C19.6522 33.6872 19.3822 33.611 19.5636 33.3449C19.7065 33.1416 19.8494 32.9279 20.1551 33.1521C20.5063 33.4223 20.942 33.544 21.3752 33.4929C21.4836 33.4912 21.5904 33.4659 21.6888 33.4186C21.7872 33.3712 21.875 33.3028 21.9467 33.2179C22.0008 33.1528 22.0379 33.0742 22.0545 32.9897C22.0711 32.9052 22.0667 32.8177 22.0415 32.7355C22.0164 32.6533 21.9715 32.5793 21.9111 32.5206C21.8507 32.4619 21.7769 32.4205 21.6967 32.4003C21.4478 32.3332 21.1941 32.2877 20.938 32.2643C20.0808 32.1671 19.6522 31.765 19.6822 31.0446C19.7093 30.2853 20.2108 29.8279 21.0352 29.81L21.2009 29.816Z" fill="white"/>
<path d="M12.6343 32.0072C12.6343 32.5752 12.6343 33.1431 12.6343 33.7096C12.6343 33.8486 12.6829 34.0534 12.4671 34.0489C12.2871 34.0489 12.0185 34.1984 11.9399 33.9308C11.8614 33.6633 11.7971 33.8143 11.6999 33.883C11.4753 34.0593 11.2071 34.1646 10.927 34.1863C10.6469 34.2081 10.3668 34.1453 10.1198 34.0056C9.59255 33.7276 9.44254 33.191 9.44111 32.605C9.44111 31.8293 9.45397 31.0506 9.43396 30.2748C9.43396 29.9669 9.53826 29.8982 9.80686 29.8982C10.0755 29.8982 10.1526 29.9908 10.1483 30.2629C10.134 30.9938 10.124 31.7277 10.1483 32.4586C10.1769 33.2821 10.777 33.7201 11.407 33.3972C11.7842 33.2044 11.9128 32.8472 11.9171 32.4347C11.9171 31.7919 11.9171 31.1492 11.9171 30.5065C11.9171 30.2434 11.7742 29.8892 12.2814 29.8952C12.7886 29.9012 12.6057 30.2823 12.6186 30.5274C12.6515 31.0192 12.6329 31.5139 12.6343 32.0072Z" fill="white"/>
<path d="M14.8188 30.2928C15.3903 29.7965 15.9732 29.6755 16.4176 29.9311C16.5604 30.0162 16.7562 30.1044 16.6333 30.3361C16.5304 30.5274 16.4204 30.7397 16.1361 30.635C15.9632 30.5738 15.7746 30.4751 15.6046 30.496C15.4245 30.5037 15.2524 30.5759 15.1171 30.7005C14.9819 30.8252 14.8917 30.9947 14.8617 31.1806C14.7188 31.8487 14.8203 32.5258 14.7888 33.191C14.7767 33.3551 14.7767 33.52 14.7888 33.6842C14.8174 33.9742 14.7102 34.0668 14.4288 34.0698C14.1473 34.0728 14.063 33.9652 14.0673 33.6797C14.0802 32.5737 14.0673 31.4676 14.0816 30.3615C14.0816 30.1941 13.9744 29.9355 14.2788 29.9131C14.5274 29.8922 14.8145 29.8249 14.8188 30.2928Z" fill="white"/>
<path d="M17.6734 29.9744C18.2635 29.813 18.3106 29.8459 18.3106 30.4228C18.3106 31.499 18.3006 32.5737 18.3106 33.6498C18.3106 33.9488 18.262 34.0698 17.9434 34.0713C17.6248 34.0728 17.5648 33.9114 17.5834 33.6349C17.5991 33.4122 17.5991 33.1865 17.6048 32.9653C17.7663 32.3973 17.6591 31.8173 17.6706 31.2434C17.6777 30.8951 17.7634 30.5334 17.6048 30.1971V30.0999L17.6734 29.9744Z" fill="white"/>
<path d="M51.067 35.2207C50.9998 34.9039 51.1441 34.8261 51.4327 34.8082C51.7913 34.7843 51.8056 34.9726 51.8185 35.2566C51.8313 35.5854 51.6985 35.6497 51.4199 35.6557C51.0927 35.6662 51.0213 35.5122 51.067 35.2207Z" fill="white"/>
<path d="M35.091 28.8848C35.1539 29.2674 34.921 29.2704 34.6524 29.2794C34.2838 29.2943 34.3495 29.0387 34.328 28.8041C34.2952 28.4408 34.5066 28.4468 34.7567 28.4334C35.091 28.411 35.1296 28.6068 35.091 28.8848Z" fill="white"/>
<path d="M50.7955 35.2312C50.8412 35.5227 50.7512 35.6647 50.4341 35.6632C50.1169 35.6617 50.0354 35.5287 50.0269 35.2148C50.0154 34.8306 50.2069 34.8291 50.4769 34.8172C50.7941 34.7978 50.8384 34.9652 50.7955 35.2312Z" fill="white"/>
<path d="M35.3767 28.8594C35.311 28.544 35.431 28.4244 35.7325 28.4274C36.0182 28.4274 36.1468 28.5111 36.134 28.8339C36.1225 29.1045 36.1054 29.2824 35.7725 29.2824C35.4653 29.2734 35.2896 29.2136 35.3767 28.8594Z" fill="white"/>
<path d="M18.3492 28.6008C18.4149 28.9296 18.242 28.9939 17.9663 28.9969C17.6506 28.9969 17.5834 28.828 17.5891 28.5485C17.5948 28.269 17.6591 28.1195 17.9749 28.1255C18.3121 28.1314 18.4021 28.2839 18.3492 28.6008Z" fill="white"/>
<path d="M17.6091 30.1926C17.7677 30.5334 17.682 30.8951 17.6748 31.2389C17.6634 31.8129 17.7706 32.3928 17.6091 32.9608V30.1926Z" fill="white"/>
<path d="M11.5284 42.8422V38.5842H12.0213V42.3848H13.9132V42.8422H11.5284Z" fill="white"/>
<path d="M14.6128 42.8422V39.6487H15.0818V42.8422H14.6128ZM14.8512 39.1165C14.7598 39.1165 14.681 39.0839 14.6147 39.0187C14.5498 38.9536 14.5174 38.8753 14.5174 38.7838C14.5174 38.6923 14.5498 38.614 14.6147 38.5489C14.681 38.4837 14.7598 38.4511 14.8512 38.4511C14.9426 38.4511 15.0208 38.4837 15.0857 38.5489C15.152 38.614 15.1851 38.6923 15.1851 38.7838C15.1851 38.8753 15.152 38.9536 15.0857 39.0187C15.0208 39.0839 14.9426 39.1165 14.8512 39.1165Z" fill="white"/>
<path d="M17.1809 42.9087C16.8947 42.9087 16.6483 42.838 16.4416 42.6966C16.2349 42.5552 16.0759 42.3605 15.9646 42.1124C15.8533 41.8643 15.7977 41.5809 15.7977 41.2621C15.7977 40.9377 15.8547 40.6515 15.9686 40.4034C16.0839 40.1539 16.2442 39.9592 16.4495 39.8192C16.6562 39.6778 16.8973 39.6071 17.1729 39.6071C17.3876 39.6071 17.581 39.6487 17.7532 39.7319C17.9255 39.815 18.0666 39.9314 18.1765 40.0811C18.2865 40.2308 18.3547 40.4055 18.3812 40.6051H17.9122C17.8764 40.4595 17.7969 40.3306 17.6737 40.2184C17.5518 40.1047 17.3876 40.0479 17.1809 40.0479C16.998 40.0479 16.8377 40.0978 16.6999 40.1976C16.5635 40.296 16.4568 40.4353 16.38 40.6155C16.3045 40.7943 16.2667 41.0043 16.2667 41.2454C16.2667 41.4921 16.3038 41.707 16.378 41.8899C16.4535 42.0729 16.5595 42.215 16.696 42.3162C16.8338 42.4173 16.9954 42.4679 17.1809 42.4679C17.3028 42.4679 17.4134 42.4458 17.5128 42.4014C17.6121 42.357 17.6963 42.2933 17.7651 42.2101C17.834 42.127 17.8831 42.0272 17.9122 41.9107H18.3812C18.3547 42.0992 18.2891 42.269 18.1845 42.4201C18.0811 42.5698 17.944 42.689 17.7731 42.7777C17.6035 42.865 17.4061 42.9087 17.1809 42.9087Z" fill="white"/>
<path d="M20.3467 42.9087C20.0526 42.9087 19.7988 42.8408 19.5855 42.7049C19.3736 42.5677 19.2099 42.3764 19.0947 42.1311C18.9807 41.8844 18.9238 41.5975 18.9238 41.2704C18.9238 40.9433 18.9807 40.655 19.0947 40.4055C19.2099 40.1546 19.3702 39.9592 19.5756 39.8192C19.7823 39.6778 20.0234 39.6071 20.299 39.6071C20.458 39.6071 20.615 39.6348 20.77 39.6903C20.925 39.7457 21.0661 39.8358 21.1933 39.9606C21.3205 40.0839 21.4218 40.2475 21.4973 40.4512C21.5729 40.655 21.6106 40.9058 21.6106 41.2038V41.4118H19.2576V40.9876H21.1337C21.1337 40.8074 21.0992 40.6467 21.0303 40.5053C20.9628 40.3639 20.866 40.2523 20.7402 40.1705C20.6156 40.0888 20.4686 40.0479 20.299 40.0479C20.1122 40.0479 19.9505 40.0964 19.8141 40.1934C19.6789 40.2891 19.5749 40.4138 19.5021 40.5676C19.4292 40.7215 19.3928 40.8864 19.3928 41.0625V41.3452C19.3928 41.5864 19.4325 41.7908 19.512 41.9586C19.5928 42.1249 19.7048 42.2517 19.8479 42.339C19.991 42.425 20.1572 42.4679 20.3467 42.4679C20.4699 42.4679 20.5812 42.4499 20.6806 42.4139C20.7812 42.3764 20.868 42.321 20.9409 42.2475C21.0138 42.1727 21.0701 42.0798 21.1098 41.969L21.5629 42.102C21.5152 42.2628 21.4351 42.4042 21.3225 42.5261C21.2098 42.6467 21.0707 42.741 20.9051 42.8089C20.7395 42.8754 20.5534 42.9087 20.3467 42.9087Z" fill="white"/>
<path d="M22.7931 40.9211V42.8422H22.3241V39.6487H22.7772V40.1477H22.8169C22.8885 39.9855 22.9971 39.8552 23.1429 39.7568C23.2886 39.657 23.4767 39.6071 23.7073 39.6071C23.9139 39.6071 24.0948 39.6515 24.2498 39.7402C24.4048 39.8275 24.5254 39.9606 24.6115 40.1394C24.6976 40.3168 24.7407 40.5413 24.7407 40.813V42.8422H24.2717V40.8462C24.2717 40.5954 24.2094 40.3999 24.0848 40.2599C23.9603 40.1186 23.7894 40.0479 23.5721 40.0479C23.4224 40.0479 23.2886 40.0818 23.1707 40.1498C23.0541 40.2177 22.962 40.3168 22.8944 40.4471C22.8269 40.5774 22.7931 40.7354 22.7931 40.9211Z" fill="white"/>
<path d="M27.7599 40.3639L27.3386 40.4886C27.3121 40.4152 27.273 40.3438 27.2213 40.2745C27.171 40.2038 27.1021 40.1456 27.0147 40.0999C26.9272 40.0541 26.8153 40.0312 26.6788 40.0312C26.492 40.0312 26.3363 40.0763 26.2118 40.1664C26.0886 40.2551 26.027 40.3681 26.027 40.5053C26.027 40.6273 26.0694 40.7236 26.1541 40.7943C26.2389 40.865 26.3714 40.9239 26.5516 40.971L27.0047 41.0874C27.2777 41.1567 27.481 41.2628 27.6148 41.4055C27.7486 41.5469 27.8156 41.7292 27.8156 41.9523C27.8156 42.1353 27.7652 42.2988 27.6645 42.443C27.5652 42.5871 27.426 42.7008 27.2472 42.784C27.0683 42.8671 26.8603 42.9087 26.6232 42.9087C26.3118 42.9087 26.0541 42.838 25.8501 42.6966C25.6461 42.5552 25.5169 42.3487 25.4626 42.0771L25.9077 41.9606C25.9501 42.1325 26.0303 42.2614 26.1482 42.3473C26.2674 42.4333 26.4231 42.4762 26.6152 42.4762C26.8338 42.4762 27.0074 42.4277 27.1359 42.3307C27.2657 42.2323 27.3306 42.1145 27.3306 41.9773C27.3306 41.8664 27.2935 41.7735 27.2194 41.6987C27.1452 41.6224 27.0312 41.5656 26.8775 41.5282L26.3688 41.4034C26.0892 41.3341 25.8839 41.2267 25.7527 41.0812C25.6229 40.9343 25.558 40.7506 25.558 40.5302C25.558 40.35 25.6063 40.1906 25.703 40.052C25.8011 39.9134 25.9342 39.8046 26.1025 39.7256C26.2721 39.6466 26.4642 39.6071 26.6788 39.6071C26.9809 39.6071 27.218 39.6764 27.3903 39.815C27.5638 39.9536 27.687 40.1366 27.7599 40.3639Z" fill="white"/>
<path d="M29.8014 42.9087C29.5073 42.9087 29.2535 42.8408 29.0402 42.7049C28.8283 42.5677 28.6646 42.3764 28.5494 42.1311C28.4354 41.8844 28.3785 41.5975 28.3785 41.2704C28.3785 40.9433 28.4354 40.655 28.5494 40.4055C28.6646 40.1546 28.8249 39.9592 29.0303 39.8192C29.237 39.6778 29.4781 39.6071 29.7537 39.6071C29.9127 39.6071 30.0697 39.6348 30.2247 39.6903C30.3797 39.7457 30.5208 39.8358 30.648 39.9606C30.7752 40.0839 30.8765 40.2475 30.9521 40.4512C31.0276 40.655 31.0653 40.9058 31.0653 41.2038V41.4118H28.7123V40.9876H30.5884C30.5884 40.8074 30.5539 40.6467 30.485 40.5053C30.4175 40.3639 30.3207 40.2523 30.1949 40.1705C30.0703 40.0888 29.9233 40.0479 29.7537 40.0479C29.5669 40.0479 29.4052 40.0964 29.2688 40.1934C29.1336 40.2891 29.0296 40.4138 28.9568 40.5676C28.8839 40.7215 28.8475 40.8864 28.8475 41.0625V41.3452C28.8475 41.5864 28.8872 41.7908 28.9667 41.9586C29.0475 42.1249 29.1595 42.2517 29.3026 42.339C29.4457 42.425 29.6119 42.4679 29.8014 42.4679C29.9246 42.4679 30.0359 42.4499 30.1353 42.4139C30.236 42.3764 30.3227 42.321 30.3956 42.2475C30.4685 42.1727 30.5248 42.0798 30.5645 41.969L31.0176 42.102C30.9699 42.2628 30.8898 42.4042 30.7772 42.5261C30.6646 42.6467 30.5254 42.741 30.3598 42.8089C30.1942 42.8754 30.0081 42.9087 29.8014 42.9087Z" fill="white"/>
<path d="M36.6438 38.5842V42.8422H36.1668L33.9489 39.499H33.9092V42.8422H33.4163V38.5842H33.8933L36.1191 41.9357H36.1588V38.5842H36.6438Z" fill="white"/>
<path d="M38.8065 42.9087C38.5309 42.9087 38.2891 42.8401 38.0811 42.7029C37.8744 42.5656 37.7128 42.3737 37.5962 42.127C37.4809 41.8802 37.4233 41.5919 37.4233 41.2621C37.4233 40.9294 37.4809 40.639 37.5962 40.3909C37.7128 40.1428 37.8744 39.9502 38.0811 39.8129C38.2891 39.6757 38.5309 39.6071 38.8065 39.6071C39.082 39.6071 39.3232 39.6757 39.5299 39.8129C39.7379 39.9502 39.8995 40.1428 40.0148 40.3909C40.1313 40.639 40.1896 40.9294 40.1896 41.2621C40.1896 41.5919 40.1313 41.8802 40.0148 42.127C39.8995 42.3737 39.7379 42.5656 39.5299 42.7029C39.3232 42.8401 39.082 42.9087 38.8065 42.9087ZM38.8065 42.4679C39.0158 42.4679 39.188 42.4118 39.3232 42.2995C39.4583 42.1873 39.5583 42.0396 39.6233 41.8567C39.6882 41.6737 39.7206 41.4755 39.7206 41.2621C39.7206 41.0486 39.6882 40.8497 39.6233 40.6654C39.5583 40.481 39.4583 40.332 39.3232 40.2184C39.188 40.1047 39.0158 40.0479 38.8065 40.0479C38.5971 40.0479 38.4249 40.1047 38.2898 40.2184C38.1546 40.332 38.0546 40.481 37.9897 40.6654C37.9247 40.8497 37.8923 41.0486 37.8923 41.2621C37.8923 41.4755 37.9247 41.6737 37.9897 41.8567C38.0546 42.0396 38.1546 42.1873 38.2898 42.2995C38.4249 42.4118 38.5971 42.4679 38.8065 42.4679Z" fill="white"/>
<path d="M41.2474 42.8754C41.1494 42.8754 41.0652 42.8387 40.995 42.7652C40.9248 42.6918 40.8897 42.6038 40.8897 42.5012C40.8897 42.3986 40.9248 42.3106 40.995 42.2371C41.0652 42.1637 41.1494 42.127 41.2474 42.127C41.3454 42.127 41.4296 42.1637 41.4998 42.2371C41.57 42.3106 41.6051 42.3986 41.6051 42.5012C41.6051 42.5691 41.5886 42.6315 41.5554 42.6883C41.5236 42.7451 41.4806 42.7909 41.4263 42.8255C41.3733 42.8588 41.3136 42.8754 41.2474 42.8754Z" fill="white"/>
<path d="M44.1399 42.8422L45.9603 39.0749V39.0416H43.8617V38.5842H46.4691V39.0666L44.6567 42.8422H44.1399Z" fill="white"/>
<path d="M47.2099 42.8422V42.4679L48.5533 40.9294C48.711 40.7492 48.8408 40.5926 48.9428 40.4595C49.0448 40.3251 49.1204 40.199 49.1694 40.0811C49.2197 39.9619 49.2449 39.8372 49.2449 39.7069C49.2449 39.5572 49.2104 39.4276 49.1416 39.3181C49.074 39.2086 48.9812 39.1241 48.8633 39.0645C48.7454 39.0049 48.6129 38.9751 48.4659 38.9751C48.3095 38.9751 48.1731 39.009 48.0565 39.077C47.9412 39.1435 47.8518 39.237 47.7882 39.3576C47.7259 39.4782 47.6948 39.6196 47.6948 39.7818H47.2258C47.2258 39.5323 47.2808 39.3133 47.3907 39.1248C47.5007 38.9363 47.6504 38.7893 47.8399 38.684C48.0306 38.5787 48.2446 38.526 48.4818 38.526C48.7202 38.526 48.9316 38.5787 49.1157 38.684C49.2999 38.7893 49.4443 38.9314 49.549 39.1102C49.6536 39.289 49.706 39.4879 49.706 39.7069C49.706 39.8635 49.6788 40.0167 49.6245 40.1664C49.5715 40.3147 49.4787 40.4803 49.3462 40.6633C49.2151 40.8449 49.0329 41.0666 48.7997 41.3286L47.8856 42.3515V42.3848H49.7775V42.8422H47.2099Z" fill="white"/>
<path d="M51.894 38.526C52.0609 38.5274 52.2279 38.5606 52.3948 38.6258C52.5617 38.6909 52.7141 38.799 52.8519 38.9501C52.9897 39.0998 53.1003 39.3043 53.1838 39.5635C53.2672 39.8226 53.309 40.1477 53.309 40.5385C53.309 40.9169 53.2745 41.2531 53.2056 41.5469C53.1381 41.8394 53.04 42.0861 52.9115 42.287C52.7843 42.488 52.6293 42.6405 52.4465 42.7444C52.265 42.8484 52.0596 42.9004 51.8304 42.9004C51.6025 42.9004 51.3992 42.8533 51.2203 42.759C51.0428 42.6634 50.897 42.531 50.7831 42.3619C50.6705 42.1914 50.5983 41.9939 50.5665 41.7694H51.0514C51.0951 41.9648 51.1819 42.1263 51.3117 42.2538C51.4429 42.3799 51.6158 42.443 51.8304 42.443C52.1444 42.443 52.3922 42.2995 52.5737 42.0126C52.7565 41.7257 52.8479 41.3203 52.8479 40.7963H52.8161C52.7419 40.9128 52.6538 41.0133 52.5518 41.0978C52.4498 41.1824 52.3365 41.2475 52.212 41.2933C52.0874 41.339 51.9549 41.3619 51.8145 41.3619C51.5813 41.3619 51.3674 41.3016 51.1726 41.181C50.9792 41.059 50.8242 40.892 50.7076 40.6799C50.5923 40.4665 50.5347 40.2225 50.5347 39.9481C50.5347 39.6875 50.5903 39.4491 50.7016 39.2329C50.8142 39.0153 50.9719 38.842 51.1746 38.7131C51.3786 38.5842 51.6184 38.5218 51.894 38.526ZM51.894 38.9834C51.7271 38.9834 51.5767 39.0271 51.4429 39.1144C51.3104 39.2003 51.2051 39.3167 51.1269 39.4637C51.05 39.6092 51.0116 39.7707 51.0116 39.9481C51.0116 40.1255 51.0487 40.287 51.1229 40.4325C51.1984 40.5767 51.3011 40.6917 51.431 40.7776C51.5621 40.8622 51.7112 40.9045 51.8781 40.9045C52.004 40.9045 52.1212 40.8788 52.2299 40.8275C52.3385 40.7749 52.4332 40.7035 52.514 40.6134C52.5962 40.5219 52.6604 40.4187 52.7068 40.3036C52.7532 40.1872 52.7764 40.0659 52.7764 39.9398C52.7764 39.7734 52.7379 39.6175 52.6611 39.472C52.5856 39.3264 52.4809 39.2086 52.3471 39.1185C52.2146 39.0284 52.0636 38.9834 51.894 38.9834Z" fill="white"/>
<path d="M55.418 42.9004C55.1186 42.9004 54.8636 42.8151 54.6529 42.6446C54.4422 42.4728 54.2813 42.224 54.17 41.8983C54.0587 41.5712 54.0031 41.1761 54.0031 40.7132C54.0031 40.253 54.0587 39.8601 54.17 39.5343C54.2826 39.2072 54.4442 38.9577 54.6549 38.7859C54.8669 38.6126 55.1213 38.526 55.418 38.526C55.7148 38.526 55.9685 38.6126 56.1792 38.7859C56.3912 38.9577 56.5528 39.2072 56.6641 39.5343C56.7767 39.8601 56.833 40.253 56.833 40.7132C56.833 41.1761 56.7774 41.5712 56.6661 41.8983C56.5548 42.224 56.3938 42.4728 56.1831 42.6446C55.9725 42.8151 55.7175 42.9004 55.418 42.9004ZM55.418 42.443C55.7148 42.443 55.9453 42.2933 56.1096 41.9939C56.2739 41.6945 56.356 41.2676 56.356 40.7132C56.356 40.3445 56.3183 40.0306 56.2428 39.7714C56.1686 39.5122 56.0613 39.3147 55.9208 39.1788C55.7817 39.043 55.6141 38.9751 55.418 38.9751C55.1239 38.9751 54.894 39.1268 54.7284 39.4304C54.5628 39.7326 54.48 40.1602 54.48 40.7132C54.48 41.0819 54.5171 41.3951 54.5913 41.6529C54.6655 41.9107 54.7721 42.1069 54.9113 42.2413C55.0517 42.3758 55.2206 42.443 55.418 42.443Z" fill="white"/>
<path d="M58.9157 42.9004C58.6163 42.9004 58.3613 42.8151 58.1506 42.6446C57.9399 42.4728 57.779 42.224 57.6677 41.8983C57.5564 41.5712 57.5007 41.1761 57.5007 40.7132C57.5007 40.253 57.5564 39.8601 57.6677 39.5343C57.7803 39.2072 57.9419 38.9577 58.1526 38.7859C58.3646 38.6126 58.6189 38.526 58.9157 38.526C59.2125 38.526 59.4662 38.6126 59.6769 38.7859C59.8888 38.9577 60.0505 39.2072 60.1618 39.5343C60.2744 39.8601 60.3307 40.253 60.3307 40.7132C60.3307 41.1761 60.2751 41.5712 60.1638 41.8983C60.0525 42.224 59.8915 42.4728 59.6808 42.6446C59.4702 42.8151 59.2151 42.9004 58.9157 42.9004ZM58.9157 42.443C59.2125 42.443 59.443 42.2933 59.6073 41.9939C59.7716 41.6945 59.8537 41.2676 59.8537 40.7132C59.8537 40.3445 59.816 40.0306 59.7405 39.7714C59.6663 39.5122 59.5589 39.3147 59.4185 39.1788C59.2794 39.043 59.1118 38.9751 58.9157 38.9751C58.6216 38.9751 58.3917 39.1268 58.2261 39.4304C58.0605 39.7326 57.9777 40.1602 57.9777 40.7132C57.9777 41.0819 58.0148 41.3951 58.089 41.6529C58.1632 41.9107 58.2698 42.1069 58.4089 42.2413C58.5494 42.3758 58.7183 42.443 58.9157 42.443Z" fill="white"/>
<path d="M60.9905 41.969V41.5448L62.7791 38.5842H63.0732V39.2412H62.8745L61.5231 41.4783V41.5116H63.9317V41.969H60.9905ZM62.9063 42.8422V38.5842H63.3753V42.8422H62.9063Z" fill="white"/>
</g>
</svg>
