<svg width="151" height="34" viewBox="0 0 151 34" fill="none" xmlns="http://www.w3.org/2000/svg">
<g id="logo 1" clip-path="url(#clip0_348_591)">
<g id="Clip path group">
<mask id="mask0_348_591" style="mask-type:luminance" maskUnits="userSpaceOnUse" x="0" y="3" width="151" height="32">
<g id="clip0_2640_228734">
<path id="Vector" d="M150.22 3.40015H0.178482V34.0001H150.22V3.40015Z" fill="white"/>
</g>
</mask>
<g mask="url(#mask0_348_591)">
<g id="Group">
<path id="Vector_2" d="M21.5944 30.7254H5.7189C2.66456 30.7254 0.178482 28.2064 0.178482 25.0996V9.01391C0.178482 5.91916 2.66456 3.40015 5.7189 3.40015H21.5944C24.6605 3.40015 27.1347 5.91916 27.1347 9.01391V25.0996C27.1466 28.2064 24.6605 30.7254 21.5944 30.7254Z" fill="#212120"/>
<path id="Vector_3" d="M8.41623 25.412V22.761C8.41623 22.5451 8.25045 22.3772 8.03741 22.3772H5.42109C5.20799 22.3772 5.04225 22.5451 5.04225 22.761V25.412C5.04225 25.628 5.20799 25.7959 5.42109 25.7959H8.03741C8.25045 25.7959 8.41623 25.628 8.41623 25.412Z" fill="white"/>
<path id="Vector_4" d="M22.2818 23.1323V10.0695C22.2818 9.0978 21.5123 8.31812 20.5533 8.31812H7.66123C7.40078 8.31812 7.24691 8.41411 7.08117 8.58201L4.51221 11.209C4.3228 11.4009 4.45302 11.6888 4.73715 11.6888H16.3981L9.16473 19.0179C9.03451 19.1499 8.97532 19.2818 8.97532 19.4977V21.429C8.97532 21.6569 9.12925 21.8129 9.35415 21.8129H11.2602C11.4851 21.8129 11.6153 21.7529 11.7337 21.6209L18.967 14.2918V26.1071C18.967 26.395 19.2511 26.527 19.4406 26.3351L22.0332 23.7201C22.1871 23.5521 22.2818 23.3962 22.2818 23.1323Z" fill="white"/>
<path id="Vector_5" d="M61.4193 19.7617L66.6992 12.3726C66.8532 12.1447 66.7348 11.9167 66.4743 11.9167H63.5976C63.4437 11.9167 63.2424 11.9768 63.1477 12.1447L59.6672 17.2907L56.1038 12.1447C56.0091 11.9887 55.8197 11.9167 55.654 11.9167H52.5878C52.4339 11.9167 52.3273 12.0487 52.3273 12.1806C52.3273 12.2407 52.3273 12.3126 52.3865 12.3726L57.6784 19.7857L51.842 27.9185C51.688 28.1464 51.8064 28.3743 52.0314 28.3743H54.9318C55.0857 28.3743 55.287 28.3144 55.3817 28.1464L59.4186 22.2567L63.5147 28.1464C63.6094 28.3144 63.7988 28.3743 63.9646 28.3743H67.0544C67.2084 28.3743 67.3149 28.2424 67.3149 28.1104C67.3149 28.0505 67.2793 27.9785 67.2557 27.9185L61.4193 19.7617Z" fill="#212120"/>
<path id="Vector_6" d="M49.6281 5.73926C49.8531 5.73926 50.0069 5.8952 50.0069 6.12311V8.31827C50.0069 8.54615 49.8531 8.70211 49.6281 8.70211H39.3168V15.2275H48.5745C48.7994 15.2275 48.9533 15.3835 48.9533 15.6114V17.7945C48.9533 18.0225 48.7994 18.1783 48.5745 18.1783H39.3168V25.3276H49.6281C49.8531 25.3276 50.0069 25.4835 50.0069 25.7114V27.9785C50.0069 28.2065 49.8531 28.3624 49.6281 28.3624H37.5647C36.6413 28.3624 35.9429 27.6547 35.9429 26.719V7.38262C35.9429 6.44699 36.6413 5.73926 37.5647 5.73926H49.6281Z" fill="#212120"/>
<path id="Vector_7" d="M78.1816 11.4011C75.0566 11.4011 73.3988 12.7925 72.44 14.0881V12.3007C72.44 12.0728 72.2865 11.9169 72.0616 11.9169H69.5397C69.3149 11.9169 69.1609 12.0848 69.1609 12.3007V33.6044C69.1609 33.8323 69.3149 33.9883 69.5397 33.9883H72.0966C72.3215 33.9883 72.4757 33.8323 72.4757 33.6044V26.2632C73.3988 27.5587 75.0566 28.8543 78.1816 28.8543C83.2606 28.8543 86.2199 24.9798 86.2199 20.1217C86.2199 15.2636 83.2606 11.4011 78.1816 11.4011ZM77.6133 26.0713C74.4883 26.0713 72.3458 23.9362 72.3458 20.1576C72.3458 16.3792 74.4883 14.172 77.6133 14.172C80.7389 14.172 82.8465 16.3671 82.8465 20.1576C82.8465 23.9362 80.7389 26.0713 77.6133 26.0713Z" fill="#212120"/>
<path id="Vector_8" d="M96.283 11.4011C91.8437 11.4011 88.3039 14.6398 88.3039 20.0017C88.3039 25.4956 91.4289 28.8663 96.6971 28.8663C99.7278 28.8663 102.249 27.5108 103.812 25.6275C103.907 25.5315 103.942 25.4356 103.942 25.3396C103.942 25.2437 103.907 25.1477 103.812 25.0518L102.344 23.5883C102.249 23.4923 102.155 23.4564 102.06 23.4564C101.965 23.4564 101.87 23.5163 101.776 23.6123C100.568 24.9438 98.9939 26.0713 96.7328 26.0713C93.4294 26.0713 91.8437 24.0082 91.5945 21.0333H103.847C104.072 21.0333 104.226 20.8653 104.226 20.6495V20.0017C104.226 15.0836 101.291 11.4011 96.283 11.4011ZM91.713 18.5143C92.0921 15.8153 93.4886 14.052 96.2595 14.052C99.1003 14.052 100.604 15.6954 100.817 18.5143H91.713Z" fill="#212120"/>
<path id="Vector_9" d="M149.852 11.9166H147.33C147.105 11.9166 146.951 12.0725 146.951 12.3004V14.1117C145.992 12.8162 144.335 11.4248 141.139 11.4248C136.131 11.4248 133.16 15.2993 133.16 20.1574C133.16 25.0155 136.131 28.89 141.139 28.89C144.335 28.89 145.992 27.4985 146.951 26.203V27.9783C146.951 28.2062 147.105 28.3622 147.33 28.3622H149.852C150.077 28.3622 150.231 28.2062 150.231 27.9783V12.3004C150.242 12.0725 150.077 11.9166 149.852 11.9166ZM141.778 26.107C138.653 26.107 136.545 23.9119 136.545 20.1214C136.545 16.3429 138.653 14.2077 141.778 14.2077C144.904 14.2077 147.046 16.3429 147.046 20.1214C147.046 23.9119 144.904 26.107 141.778 26.107Z" fill="#212120"/>
<path id="Vector_10" d="M122.993 5.73926H120.435C120.21 5.73926 120.057 5.8952 120.057 6.12311V14.1119C119.097 12.8165 117.476 11.425 114.28 11.425C109.272 11.425 106.3 15.2995 106.3 20.1576C106.3 25.0157 109.272 28.8902 114.28 28.8902C117.476 28.8902 119.133 27.4988 120.092 26.2032V27.9785C120.092 28.2065 120.246 28.3624 120.471 28.3624H122.993C123.217 28.3624 123.371 28.2065 123.371 27.9785V6.12311C123.371 5.8952 123.217 5.73926 122.993 5.73926ZM114.918 26.1073C111.794 26.1073 109.686 23.9121 109.686 20.1216C109.686 16.3431 111.794 14.2079 114.918 14.2079C118.044 14.2079 120.187 16.3431 120.187 20.1216C120.187 23.9121 118.044 26.1073 114.918 26.1073Z" fill="#212120"/>
<path id="Vector_11" d="M129.941 5.73926C130.166 5.73926 130.32 5.8952 130.32 6.12311V8.77409C130.32 9.00196 130.166 9.15793 129.941 9.15793H127.325C127.1 9.15793 126.946 9.00196 126.946 8.77409V6.12311C126.946 5.8952 127.1 5.73926 127.325 5.73926H129.941Z" fill="#212120"/>
<path id="Vector_12" d="M129.916 11.9167C130.141 11.9167 130.294 12.0727 130.294 12.3007V27.9785C130.294 28.2064 130.141 28.3623 129.916 28.3623H127.358C127.133 28.3623 126.979 28.2064 126.979 27.9785V12.3007C126.979 12.0727 127.133 11.9167 127.358 11.9167H129.916Z" fill="#212120"/>
</g>
</g>
</g>
</g>
<defs>
<clipPath id="clip0_348_591">
<rect width="151" height="34" fill="white"/>
</clipPath>
</defs>
</svg>
