<svg width="43" height="43" viewBox="0 0 43 43" fill="none" xmlns="http://www.w3.org/2000/svg">
<g id="graph pie">
<path id="Vector" d="M20 23.54V6C20 5.73478 19.8947 5.48043 19.7071 5.29289C19.5196 5.10536 19.2652 5 19 5C15.8061 5.00186 12.6643 5.80882 9.86481 7.34629C7.06535 8.88377 4.69864 11.1021 2.98342 13.7964C1.26821 16.4906 0.259843 19.5737 0.0515359 22.7608C-0.156771 25.9479 0.441699 29.136 1.79163 32.0306C3.14156 34.9252 5.19939 37.4327 7.77491 39.3215C10.3504 41.2103 13.3605 42.4193 16.527 42.8369C19.6935 43.2545 22.9141 42.8671 25.8912 41.7106C28.8683 40.554 31.5059 38.6657 33.56 36.22C33.7238 36.0098 33.8023 35.7456 33.78 35.48C33.7702 35.348 33.7331 35.2194 33.6711 35.1024C33.6092 34.9853 33.5237 34.8824 33.42 34.8L20 23.54ZM19 41C14.4913 41.1326 10.1146 39.4687 6.83276 36.3744C3.55087 33.28 1.63263 29.0087 1.50002 24.5C1.36741 19.9913 3.0313 15.6146 6.12565 12.3327C9.22 9.05085 13.4913 7.13261 18 7V24C17.9999 24.1455 18.0321 24.2891 18.0944 24.4206C18.1566 24.552 18.2474 24.668 18.36 24.76L31.36 35.68C29.771 37.3622 27.855 38.7018 25.7295 39.6166C23.604 40.5315 21.314 41.0022 19 41Z" fill="#212120"/>
<path id="Vector_2" d="M22.38 20.56C22.5405 20.5553 22.6978 20.5143 22.84 20.44L36.84 13.12C36.9594 13.0586 37.0651 12.9739 37.151 12.8708C37.2369 12.7677 37.3012 12.6484 37.34 12.52C37.4091 12.2503 37.3734 11.9644 37.24 11.72C35.6646 9.03712 33.5594 6.70309 31.0528 4.86009C28.5462 3.01709 25.6906 1.70372 22.66 0.999987C22.5139 0.971216 22.3632 0.974184 22.2183 1.00869C22.0734 1.04319 21.9375 1.10843 21.82 1.19999C21.7011 1.2921 21.6049 1.41038 21.539 1.54564C21.4731 1.68091 21.4392 1.82953 21.44 1.97999V19.52C21.4349 19.691 21.4747 19.8604 21.5554 20.0113C21.6361 20.1622 21.7549 20.2893 21.9 20.38C22.0417 20.4807 22.2071 20.5427 22.38 20.56ZM23.44 3.27999C28.1878 4.68075 32.2844 7.72124 35 11.86L23.38 17.86L23.44 3.27999Z" fill="#212120"/>
<path id="Vector_3" d="M38.9 14.78C38.7659 14.5868 38.5656 14.4495 38.3371 14.3942C38.1085 14.3389 37.8676 14.3695 37.66 14.48L22 22.2C21.8464 22.2694 21.7138 22.378 21.6155 22.515C21.5172 22.6519 21.4567 22.8123 21.44 22.98C21.4207 23.1481 21.4434 23.3184 21.5063 23.4755C21.5691 23.6326 21.6701 23.7716 21.8 23.88L35.36 34.7C35.5297 34.8746 35.7573 34.9812 36 35C36.2166 35.0015 36.4276 34.9311 36.6 34.8C38.8563 33.11 40.5445 30.773 41.44 28.1C42.0812 25.8351 42.1855 23.452 41.7446 21.1397C41.3037 18.8275 40.3297 16.65 38.9 14.78ZM39.44 27.4C38.7559 29.4399 37.5244 31.2525 35.88 32.64L24.18 23.3L37.76 16.66C38.7974 18.2234 39.4845 19.9926 39.7745 21.8463C40.0645 23.7 39.9504 25.5945 39.44 27.4Z" fill="#212120"/>
</g>
</svg>
