<svg width="56" height="61" viewBox="0 0 56 61" fill="none" xmlns="http://www.w3.org/2000/svg">
<g id="graph line">
<path id="Vector" d="M54.4 57.5579H2.80002V1.88421C2.80002 1.54083 2.6736 1.21151 2.44855 0.968697C2.22351 0.725887 1.91828 0.589478 1.60002 0.589478C1.28176 0.589478 0.97654 0.725887 0.751496 0.968697C0.526453 1.21151 0.400024 1.54083 0.400024 1.88421V58.8526C0.400024 59.196 0.526453 59.5253 0.751496 59.7682C0.97654 60.011 1.28176 60.1474 1.60002 60.1474H54.4C54.7183 60.1474 55.0235 60.011 55.2486 59.7682C55.4736 59.5253 55.6 59.196 55.6 58.8526C55.6 58.5092 55.4736 58.1799 55.2486 57.9371C55.0235 57.6943 54.7183 57.5579 54.4 57.5579Z" fill="#231F20"/>
<path id="Vector_2" d="M8.80001 36.8421C9.75479 36.8421 10.6705 36.4329 11.3456 35.7045C12.0207 34.976 12.4 33.9881 12.4 32.9579C12.4003 32.2598 12.2239 31.5748 11.8897 30.977C11.5556 30.3792 11.0764 29.8912 10.504 29.5657L15.568 18.7158H16H16.312L26.32 42.5131C25.7545 42.8351 25.2787 43.3138 24.9415 43.8999C24.6043 44.4861 24.4179 45.1586 24.4014 45.8483C24.385 46.538 24.5391 47.2199 24.8479 47.824C25.1566 48.4282 25.609 48.9327 26.1584 49.2856C26.7078 49.6386 27.3344 49.8273 27.9738 49.8324C28.6132 49.8374 29.2423 49.6587 29.7965 49.3144C30.3506 48.9702 30.8098 48.4729 31.1268 47.8737C31.4437 47.2746 31.6071 46.5951 31.6 45.9053C31.6003 45.2071 31.4239 44.5222 31.0897 43.9244C30.7556 43.3265 30.2764 42.8385 29.704 42.5131L34.768 31.6632H35.2C36.1424 31.6634 37.0474 31.2648 37.7205 30.5531C38.3936 29.8414 38.7812 28.8733 38.8 27.8566L48.76 24.2573C49.0353 24.8869 49.4624 25.4251 49.9966 25.8156C50.5308 26.2061 51.1524 26.4345 51.7964 26.477C52.4405 26.5194 53.0833 26.3743 53.6575 26.0568C54.2318 25.7393 54.7164 25.2612 55.0606 24.6724C55.4049 24.0836 55.5962 23.4058 55.6144 22.7098C55.6327 22.0139 55.4772 21.3255 55.1644 20.7167C54.8515 20.1078 54.3928 19.6008 53.8361 19.2488C53.2794 18.8968 52.6452 18.7127 52 18.7158C51.2045 18.7164 50.4315 19.0013 49.8019 19.526C49.1723 20.0507 48.7215 20.7857 48.52 21.616L38.032 25.3966C37.7168 25.0124 37.3346 24.6989 36.9071 24.474C36.4797 24.2491 36.0153 24.1173 35.5406 24.086C35.0659 24.0548 34.5902 24.1247 34.1405 24.2918C33.6909 24.4589 33.2762 24.72 32.92 25.06C32.5639 25.4001 32.2733 25.8125 32.0649 26.2737C31.8564 26.7349 31.7343 27.2359 31.7053 27.7481C31.6763 28.2603 31.7411 28.7736 31.896 29.2587C32.0509 29.7439 32.2928 30.1913 32.608 30.5756L28.048 40.4156L18.448 17.7318C18.8139 17.3593 19.105 16.9097 19.3032 16.4108C19.5013 15.9119 19.6024 15.3744 19.6 14.8316C19.616 14.1917 19.4852 13.5576 19.2192 12.9854C18.9532 12.4133 18.5603 11.9209 18.0754 11.5522C17.5905 11.1834 17.0286 10.9497 16.4398 10.8717C15.851 10.7937 15.2534 10.874 14.7003 11.1053C14.1471 11.3366 13.6555 11.7119 13.2692 12.1976C12.8829 12.6834 12.6139 13.2646 12.486 13.8897C12.3581 14.5147 12.3753 15.1641 12.5362 15.7802C12.6971 16.3963 12.9965 16.96 13.408 17.4211L8.00801 29.0737C7.05324 29.187 6.17928 29.7049 5.57842 30.5135C4.97755 31.322 4.69899 32.355 4.80401 33.3852C4.90904 34.4153 5.38905 35.3583 6.13844 36.0066C6.88784 36.6549 7.84523 36.9554 8.80001 36.8421ZM28 47.2C27.7627 47.2 27.5307 47.1241 27.3333 46.9818C27.136 46.8395 26.9822 46.6373 26.8914 46.4007C26.8005 46.1642 26.7768 45.9038 26.8231 45.6527C26.8694 45.4015 26.9837 45.1708 27.1515 44.9898C27.3193 44.8087 27.5331 44.6854 27.7659 44.6354C27.9987 44.5855 28.24 44.6111 28.4592 44.7091C28.6785 44.8071 28.8659 44.973 28.9978 45.186C29.1296 45.3989 29.2 45.6492 29.2 45.9053C29.2 46.2487 29.0736 46.578 28.8485 46.8208C28.6235 47.0636 28.3183 47.2 28 47.2ZM52 21.3053C52.2374 21.3053 52.4694 21.3812 52.6667 21.5235C52.864 21.6657 53.0178 21.868 53.1087 22.1045C53.1995 22.3411 53.2233 22.6014 53.177 22.8526C53.1307 23.1038 53.0164 23.3345 52.8485 23.5155C52.6807 23.6966 52.4669 23.8199 52.2341 23.8699C52.0013 23.9198 51.7601 23.8942 51.5408 23.7962C51.3215 23.6982 51.1341 23.5322 51.0022 23.3193C50.8704 23.1064 50.8 22.8561 50.8 22.6C50.8 22.2566 50.9264 21.9273 51.1515 21.6845C51.3765 21.4417 51.6818 21.3053 52 21.3053ZM35.2 26.4842C35.4374 26.4842 35.6694 26.5602 35.8667 26.7024C36.064 26.8447 36.2178 27.0469 36.3087 27.2835C36.3995 27.5201 36.4233 27.7804 36.377 28.0316C36.3307 28.2827 36.2164 28.5134 36.0485 28.6945C35.8807 28.8755 35.6669 28.9989 35.4341 29.0488C35.2013 29.0988 34.9601 29.0731 34.7408 28.9751C34.5215 28.8771 34.3341 28.7112 34.2022 28.4983C34.0704 28.2854 34 28.035 34 27.779C34 27.4356 34.1264 27.1063 34.3515 26.8634C34.5765 26.6206 34.8818 26.4842 35.2 26.4842ZM16 13.5369C16.2374 13.5369 16.4694 13.6128 16.6667 13.7551C16.864 13.8973 17.0178 14.0995 17.1087 14.3361C17.1995 14.5727 17.2233 14.833 17.177 15.0842C17.1307 15.3353 17.0164 15.566 16.8485 15.7471C16.6807 15.9282 16.4669 16.0515 16.2341 16.1014C16.0013 16.1514 15.7601 16.1258 15.5408 16.0278C15.3215 15.9298 15.1341 15.7638 15.0022 15.5509C14.8704 15.338 14.8 15.0877 14.8 14.8316C14.8 14.4882 14.9264 14.1589 15.1515 13.9161C15.3765 13.6733 15.6818 13.5369 16 13.5369ZM8.80001 31.6632C9.03735 31.6632 9.26936 31.7391 9.4667 31.8814C9.66404 32.0236 9.81784 32.2259 9.90867 32.4624C9.99949 32.699 10.0233 32.9593 9.97696 33.2105C9.93065 33.4617 9.81636 33.6924 9.64854 33.8734C9.48072 34.0545 9.2669 34.1778 9.03412 34.2278C8.80135 34.2777 8.56007 34.2521 8.34079 34.1541C8.12152 34.0561 7.93411 33.8901 7.80225 33.6772C7.67039 33.4643 7.60001 33.214 7.60001 32.9579C7.60001 32.6145 7.72644 32.2852 7.95149 32.0424C8.17653 31.7996 8.48175 31.6632 8.80001 31.6632Z" fill="#231F20"/>
</g>
</svg>
