<svg width="21" height="21" viewBox="0 0 21 21" fill="none" xmlns="http://www.w3.org/2000/svg">
<g id="icon/linkedin">
<path id="Vector" d="M3.93335 8.06906H6.71113V17.5135H3.93335V8.06906ZM5.3139 6.95795H5.29835C4.46946 6.95795 3.93335 6.34018 3.93335 5.56851C3.93335 4.78018 4.48613 4.18018 5.33002 4.18018C6.17502 4.18018 6.69557 4.78018 6.71113 5.56851C6.71113 6.33962 6.17502 6.95795 5.3139 6.95795ZM17.2667 17.5135H14.4889V12.4585C14.4889 11.2374 13.8083 10.4041 12.7156 10.4041C11.8817 10.4041 11.4306 10.9663 11.2117 11.5096C11.1317 11.7041 11.1556 12.2418 11.1556 12.5135V17.5135H8.37779V8.06906H11.1556V9.5224C11.5561 8.9024 12.1833 8.06906 13.7878 8.06906C15.7756 8.06906 17.2661 9.31906 17.2661 12.1102L17.2667 17.5135Z" fill="white"/>
</g>
</svg>
