<svg width="52" height="61" viewBox="0 0 52 61" fill="none" xmlns="http://www.w3.org/2000/svg">
<g id="office chair">
<path id="Vector" d="M50 29.0737H47.6C47.4426 29.0716 47.2866 29.1051 47.1419 29.172C46.9972 29.2389 46.8671 29.3377 46.76 29.4621L45.08 31.2747C44.7351 31.6333 44.4615 32.0639 44.2758 32.5402C44.0901 33.0166 43.9963 33.5287 44 34.0455V37.7484C43.2426 37.1472 42.3242 36.829 41.384 36.8421H27.2V34.2526H38.12C38.9452 34.2475 39.7594 34.0478 40.5056 33.6676C41.2518 33.2874 41.912 32.7359 42.44 32.0516C43.0019 31.3223 43.409 30.4693 43.6329 29.5522C43.8568 28.6352 43.892 27.6764 43.736 26.7432L40.376 5.76842C40.151 4.33183 39.4654 3.02618 38.4389 2.07956C37.4124 1.13294 36.1103 0.605538 34.76 0.589478H17.24C15.8897 0.605538 14.5876 1.13294 13.5611 2.07956C12.5346 3.02618 11.849 4.33183 11.624 5.76842L8.264 26.7432C8.10801 27.6764 8.1432 28.6352 8.36708 29.5522C8.59097 30.4693 8.99813 31.3223 9.56 32.0516C10.088 32.7359 10.7482 33.2874 11.4944 33.6676C12.2406 34.0478 13.0548 34.2475 13.88 34.2526H24.8V36.8421H10.736C9.73251 36.8631 8.76634 37.2563 7.99999 37.9556V34.0455C7.98372 33.0064 7.59692 32.014 6.92 31.2747L5.21599 29.4621C5.10087 29.3275 4.95906 29.2226 4.80116 29.1554C4.64324 29.0881 4.4733 29.0602 4.30399 29.0737H1.90399C1.58573 29.0737 1.28051 29.2101 1.05547 29.4529C0.830423 29.6957 0.703995 30.025 0.703995 30.3684C0.703995 30.7118 0.830423 31.0411 1.05547 31.2839C1.28051 31.5268 1.58573 31.6632 1.90399 31.6632H3.79999L5.14399 33.0874C5.37751 33.3549 5.51384 33.7042 5.528 34.0714L5.59999 42.539C5.56479 42.7095 5.56479 42.8863 5.59999 43.0568C5.52468 43.8514 5.71166 44.6492 6.12799 45.3097C6.53929 45.9308 7.08932 46.4297 7.72707 46.7602C8.36481 47.0906 9.06958 47.2419 9.77599 47.2H24.8V52.3789H11.48C10.6029 52.3365 9.74573 52.6689 9.09428 53.3039C8.44283 53.9389 8.04964 54.8254 7.99999 55.7712V58.8526C7.99999 59.196 8.12642 59.5253 8.35147 59.7682C8.57651 60.011 8.88173 60.1474 9.2 60.1474C9.51826 60.1474 9.82348 60.011 10.0485 59.7682C10.2736 59.5253 10.4 59.196 10.4 58.8526V55.7712C10.4 55.3568 10.904 54.9684 11.48 54.9684H40.52C41.096 54.9684 41.6 55.3568 41.6 55.7712V58.8526C41.6 59.196 41.7264 59.5253 41.9515 59.7682C42.1765 60.011 42.4817 60.1474 42.8 60.1474C43.1183 60.1474 43.4235 60.011 43.6485 59.7682C43.8736 59.5253 44 59.196 44 58.8526V55.7712C43.9503 54.8254 43.5572 53.9389 42.9057 53.3039C42.2543 52.6689 41.3971 52.3365 40.52 52.3789H27.2V47.2H42.368C43.0515 47.2227 43.7295 47.0618 44.3411 46.7319C44.9527 46.402 45.4787 45.9132 45.872 45.3097C46.1623 44.8984 46.361 44.4206 46.4526 43.9131C46.5441 43.4057 46.5261 42.8823 46.4 42.3836V34.0714C46.3959 33.7052 46.5252 33.3518 46.76 33.0874L48.104 31.6632H50C50.3183 31.6632 50.6235 31.5268 50.8485 31.2839C51.0736 31.0411 51.2 30.7118 51.2 30.3684C51.2 30.025 51.0736 29.6957 50.8485 29.4529C50.6235 29.2101 50.3183 29.0737 50 29.0737ZM14 31.6632C13.5381 31.6549 13.0836 31.5369 12.6688 31.3176C12.254 31.0983 11.8891 30.7831 11.6 30.3943C11.2546 29.9566 11.0043 29.4411 10.8672 28.8855C10.7302 28.33 10.71 27.7484 10.808 27.1834L13.976 6.28632C14.0988 5.43896 14.4922 4.66457 15.0883 4.09713C15.6843 3.52969 16.4455 3.2049 17.24 3.17895H34.76C35.5545 3.2049 36.3157 3.52969 36.9117 4.09713C37.5078 4.66457 37.9012 5.43896 38.024 6.28632L41.384 27.1834C41.482 27.7484 41.4618 28.33 41.3248 28.8855C41.1877 29.4411 40.9374 29.9566 40.592 30.3943C40.3029 30.7831 39.938 31.0983 39.5232 31.3176C39.1084 31.5369 38.6539 31.6549 38.192 31.6632H14ZM44 43.8596C43.8189 44.1089 43.5847 44.3073 43.3173 44.4381C43.0499 44.5688 42.7571 44.628 42.464 44.6105H9.77599C9.48285 44.628 9.19015 44.5688 8.92273 44.4381C8.65532 44.3073 8.42111 44.1089 8.23999 43.8596C8.17685 43.7275 8.1439 43.581 8.1439 43.4323C8.1439 43.2837 8.17685 43.1372 8.23999 43.0051L9.224 40.4156C9.36868 40.1182 9.5861 39.8693 9.85265 39.6958C10.1192 39.5223 10.4247 39.4309 10.736 39.4316H41.384C41.7124 39.407 42.0404 39.4841 42.3295 39.6538C42.6186 39.8236 42.8568 40.0789 43.016 40.3897L44 42.9792C44.0672 43.1146 44.1024 43.2658 44.1024 43.4194C44.1024 43.573 44.0672 43.7242 44 43.8596Z" fill="#231F20"/>
</g>
</svg>
