<svg width="34" height="46" viewBox="0 0 34 46" fill="none" xmlns="http://www.w3.org/2000/svg">
<g id="paper">
<path id="Vector" d="M33 0H1.00002C0.734799 0 0.480445 0.105357 0.292909 0.292893C0.105372 0.48043 1.52588e-05 0.734784 1.52588e-05 1V45C1.52588e-05 45.2652 0.105372 45.5196 0.292909 45.7071C0.480445 45.8946 0.734799 46 1.00002 46H22.42C22.6158 46.0033 22.808 45.9479 22.972 45.841C23.1359 45.7341 23.2641 45.5805 23.34 45.4L33.68 35.72C33.7799 35.6242 33.8597 35.5093 33.9146 35.3823C33.9696 35.2552 33.9986 35.1184 34 34.98V1C34 0.734784 33.8947 0.48043 33.7071 0.292893C33.5196 0.105357 33.2652 0 33 0ZM2.00002 2H32V33.56H22.46C22.1948 33.56 21.9404 33.6654 21.7529 33.8529C21.5654 34.0404 21.46 34.2948 21.46 34.56V44H2.00002V2ZM30.92 35.56L23.44 42.58V35.56H30.92Z" fill="#212120"/>
<path id="Vector_2" d="M7.00002 10H21C21.2652 10 21.5196 9.89464 21.7071 9.70711C21.8947 9.51957 22 9.26522 22 9C22 8.73478 21.8947 8.48043 21.7071 8.29289C21.5196 8.10536 21.2652 8 21 8H7.00002C6.7348 8 6.48045 8.10536 6.29291 8.29289C6.10537 8.48043 6.00002 8.73478 6.00002 9C6.00002 9.26522 6.10537 9.51957 6.29291 9.70711C6.48045 9.89464 6.7348 10 7.00002 10Z" fill="#212120"/>
<path id="Vector_3" d="M7.00002 16H23C23.2652 16 23.5196 15.8946 23.7071 15.7071C23.8947 15.5196 24 15.2652 24 15C24 14.7348 23.8947 14.4804 23.7071 14.2929C23.5196 14.1054 23.2652 14 23 14H7.00002C6.7348 14 6.48045 14.1054 6.29291 14.2929C6.10537 14.4804 6.00002 14.7348 6.00002 15C6.00002 15.2652 6.10537 15.5196 6.29291 15.7071C6.48045 15.8946 6.7348 16 7.00002 16Z" fill="#212120"/>
<path id="Vector_4" d="M17 26H7.00002C6.7348 26 6.48045 26.1054 6.29291 26.2929C6.10537 26.4804 6.00002 26.7348 6.00002 27C6.00002 27.2652 6.10537 27.5196 6.29291 27.7071C6.48045 27.8946 6.7348 28 7.00002 28H17C17.2652 28 17.5196 27.8946 17.7071 27.7071C17.8947 27.5196 18 27.2652 18 27C18 26.7348 17.8947 26.4804 17.7071 26.2929C17.5196 26.1054 17.2652 26 17 26Z" fill="#212120"/>
<path id="Vector_5" d="M7.00002 22H27C27.2652 22 27.5196 21.8946 27.7071 21.7071C27.8947 21.5196 28 21.2652 28 21C28 20.7348 27.8947 20.4804 27.7071 20.2929C27.5196 20.1054 27.2652 20 27 20H7.00002C6.7348 20 6.48045 20.1054 6.29291 20.2929C6.10537 20.4804 6.00002 20.7348 6.00002 21C6.00002 21.2652 6.10537 21.5196 6.29291 21.7071C6.48045 21.8946 6.7348 22 7.00002 22Z" fill="#212120"/>
</g>
</svg>
