<svg width="46" height="54" viewBox="0 0 46 54" fill="none" xmlns="http://www.w3.org/2000/svg">
<g id="person male">
<path id="Vector" d="M45.56 45.56L42.728 35.96C41.9748 33.4739 40.4353 31.2994 38.3407 29.763C36.2461 28.2267 33.7095 27.4115 31.112 27.44H30.008C31.9834 26.074 33.5923 24.2431 34.6931 22.1085C35.7939 19.974 36.3526 17.6014 36.32 15.2C36.463 11.5322 35.1465 7.95719 32.6589 5.25813C30.1713 2.55906 26.7153 0.955963 23.048 0.799988C19.3872 0.968327 15.941 2.57597 13.4598 5.27294C10.9786 7.96991 9.66321 11.5378 9.8 15.2C9.77219 17.6032 10.3355 19.9764 11.4403 22.1108C12.5452 24.2451 14.1577 26.0752 16.136 27.44H15.008C12.4105 27.4115 9.87392 28.2267 7.7793 29.763C5.68469 31.2994 4.14516 33.4739 3.392 35.96L0.535998 45.56C0.363728 46.1601 0.411777 46.8021 0.671464 47.3698C0.93115 47.9376 1.38535 48.3938 1.952 48.656C8.64139 51.5015 15.786 53.1271 23.048 53.456H23.168C30.3888 53.1089 37.4908 51.4837 44.144 48.656C44.714 48.3978 45.1713 47.9421 45.4315 47.3731C45.6918 46.804 45.7374 46.16 45.56 45.56ZM22.808 31.448L20.864 29.768H24.752L22.808 31.448ZM28.4 29.768H30.8L27.536 36.056L24.488 33.224L28.4 29.768ZM23.048 3.19999C25.2658 3.25662 27.4137 3.98741 29.2059 5.29508C30.998 6.60275 32.3493 8.42525 33.08 10.52C31.9855 10.7243 30.8625 10.7243 29.768 10.52C28.251 10.1599 26.8483 9.42551 25.688 8.38399C25.4686 8.20254 25.1927 8.10327 24.908 8.10327C24.6233 8.10327 24.3474 8.20254 24.128 8.38399C22.5926 9.63392 20.7833 10.5029 18.8479 10.92C16.9125 11.3372 14.9059 11.2905 12.992 10.784C13.6829 8.63804 15.0197 6.75783 16.8196 5.40037C18.6196 4.0429 20.7948 3.27443 23.048 3.19999ZM12.2 15.2C12.1847 14.3966 12.2409 13.5934 12.368 12.8C13.6537 13.1323 14.9761 13.3016 16.304 13.304C17.7613 13.3587 19.2184 13.1887 20.624 12.8C22.1326 12.3518 23.559 11.663 24.848 10.76C26.1372 11.7514 27.6283 12.4478 29.216 12.8C30.727 13.1221 32.289 13.1221 33.8 12.8C33.9256 13.5374 33.9898 14.284 33.992 15.032C34.1357 18.0635 33.0722 21.0284 31.0345 23.2775C28.9968 25.5266 26.1509 26.8767 23.12 27.032C20.113 26.8825 17.2846 25.5594 15.2427 23.347C13.2008 21.1345 12.1083 18.2093 12.2 15.2ZM17.264 29.84L21.296 33.344L18.512 36.104L14.936 29.768H17.216L17.264 29.84ZM2.864 46.304L5.72 36.704C6.20105 35.1531 7.06763 33.7495 8.23869 32.6246C9.40975 31.4998 10.847 30.6903 12.416 30.272L17.216 38.744C17.316 38.8986 17.4462 39.0315 17.5988 39.1346C17.7514 39.2377 17.9232 39.3089 18.104 39.344H18.272C18.4294 39.3459 18.5854 39.3149 18.7301 39.2529C18.8748 39.1909 19.0048 39.0993 19.112 38.984L21.8 36.08L21.92 50.96C15.4 50.4931 9.00182 48.9524 2.984 46.4C2.984 46.4 2.792 46.4 2.84 46.232L2.864 46.304ZM43.136 46.4C37.1471 48.8714 30.8045 50.3781 24.344 50.864L24.2 36.32L26.96 38.888C27.1866 39.0851 27.4757 39.1956 27.776 39.2H27.992C28.172 39.1716 28.3424 39.1 28.4887 38.9913C28.635 38.8826 28.7528 38.7401 28.832 38.576L33.272 30.056C34.9444 30.405 36.4934 31.194 37.7591 32.3415C39.0248 33.4891 39.9613 34.9536 40.472 36.584L43.304 46.184C43.3052 46.2339 43.2892 46.2826 43.2586 46.322C43.2279 46.3614 43.1846 46.3889 43.136 46.4Z" fill="#231F20"/>
</g>
</svg>
