<svg width="40" height="47" viewBox="0 0 40 47" fill="none" xmlns="http://www.w3.org/2000/svg">
<g id="person female">
<path id="Vector" d="M39 40.42L36.6 32.22C35.9652 30.1081 34.6592 28.2606 32.8799 26.9578C31.1006 25.6549 28.9451 24.9676 26.74 25H26.12C27.6585 23.8307 28.9015 22.3169 29.749 20.5802C30.5965 18.8435 31.025 16.9323 31 15C31 14.68 31 14.36 31 14.04C31.0703 13.8462 31.0703 13.6338 31 13.44C30.891 12.4045 30.642 11.3886 30.26 10.42C31.1197 10.395 31.9451 10.0775 32.6 9.52002C33.425 8.59894 33.8592 7.39296 33.8107 6.15737C33.7622 4.92178 33.2347 3.75356 32.34 2.90002C31.6011 1.90843 30.5054 1.24331 29.2847 1.04547C28.064 0.847619 26.8143 1.13258 25.8 1.84002C25.1545 2.42961 24.7427 3.23183 24.64 4.10002C23.1944 3.3731 21.5981 2.99629 19.98 3.00002C16.9399 3.1556 14.0834 4.50195 12.0285 6.74774C9.97359 8.99353 8.88562 11.9581 9.00001 15C8.96956 16.9311 9.39356 18.8424 10.2378 20.5794C11.082 22.3165 12.3228 23.8308 13.86 25H13.26C11.0727 24.9926 8.94147 25.6912 7.18304 26.992C5.42462 28.2928 4.13292 30.1263 3.50001 32.22L1.00001 40.42C0.857448 40.9297 0.907007 41.4741 1.13928 41.9497C1.37155 42.4253 1.77036 42.799 2.26001 43C7.87823 45.3876 13.8809 46.7426 19.98 47C26.0525 46.737 32.028 45.382 37.62 43C38.129 42.8177 38.5521 42.4527 38.8071 41.9759C39.0621 41.4992 39.1309 40.9446 39 40.42ZM27 3.32002C27.6207 2.97934 28.3462 2.88278 29.0344 3.04927C29.7225 3.21576 30.3237 3.6333 30.72 4.22002C31.84 5.48002 32.04 7.22002 31.16 8.00002C30.9047 8.1958 30.606 8.32712 30.2892 8.38282C29.9723 8.43853 29.6467 8.41699 29.34 8.32002H29.12C28.4069 7.17255 27.5001 6.1575 26.44 5.32002C26.4599 5.22102 26.4599 5.11903 26.44 5.02002C26.3949 4.71264 26.422 4.39896 26.5192 4.10388C26.6164 3.8088 26.781 3.54042 27 3.32002ZM19.98 5.00002C22.0508 5.08981 24.0315 5.87172 25.6052 7.22061C27.1789 8.5695 28.2546 10.4074 28.66 12.44C27.5538 12.1475 26.4863 11.7245 25.48 11.18C23.5971 10.1823 22.1092 8.5744 21.26 6.62002C21.1712 6.4017 21.0081 6.22177 20.7995 6.11199C20.5909 6.00222 20.3503 5.96964 20.12 6.02002C19.8928 6.07493 19.6914 6.20621 19.5494 6.39188C19.4074 6.57756 19.3335 6.80637 19.34 7.04002C19.3423 7.87916 19.1281 8.7047 18.7182 9.43691C18.3083 10.1691 17.7165 10.7833 17 11.22C15.2712 12.36 13.2507 12.978 11.18 13C11.4816 10.8487 12.5267 8.87082 14.1341 7.40954C15.7415 5.94826 17.8098 5.09578 19.98 5.00002ZM11 15C13.497 15.0285 15.949 14.3339 18.06 13C19.2495 12.2221 20.1984 11.1277 20.8 9.84002C21.8046 11.135 23.0638 12.2104 24.5 13C25.9153 13.7424 27.4313 14.2746 29 14.58C29 14.74 29 14.88 29 15.04C29.0356 16.8061 28.6119 18.551 27.7705 20.1042C26.9291 21.6573 25.6988 22.9652 24.2 23.9C24 24.0252 23.793 24.1387 23.58 24.24C23.3954 24.3292 23.2427 24.473 23.1425 24.6518C23.0424 24.8307 22.9996 25.036 23.02 25.24C23.02 25.24 23.02 25.34 23.02 25.38V31H17V25.28C17.0234 25.0757 16.9819 24.8691 16.8814 24.6896C16.7809 24.5101 16.6265 24.3668 16.44 24.28L15.84 23.94C14.3206 23.0047 13.0736 21.6865 12.2242 20.1174C11.3747 18.5484 10.9525 16.7836 11 15ZM3.00001 41L5.38001 32.8C5.891 31.1197 6.92925 29.6485 8.34117 28.6039C9.75309 27.5594 11.4637 26.997 13.22 27H14.78H15V44.6C10.9155 43.9687 6.92509 42.8334 3.12001 41.22C3.04001 41.1667 3.00001 41.0934 3.00001 41ZM20.06 45C19.1 45 18.06 45 17.08 44.82V33H23.08V44.74C23.0781 44.7733 23.0781 44.8067 23.08 44.84C22.0773 44.9519 21.0689 45.0053 20.06 45ZM36.86 41.18C33.054 42.7756 29.0732 43.9168 25 44.58V27H25.22H26.74C28.4938 26.9957 30.2025 27.5552 31.6141 28.5959C33.0257 29.6366 34.0655 31.1034 34.58 32.78L37 41C37.0068 41.0474 36.9965 41.0956 36.9708 41.136C36.9451 41.1763 36.9058 41.2062 36.86 41.22V41.18Z" fill="#212120"/>
</g>
</svg>
