<svg width="46" height="44" viewBox="0 0 46 44" fill="none" xmlns="http://www.w3.org/2000/svg">
<g id="phone">
<path id="Vector" d="M45 -1.05137e-05H19C18.7348 -1.05137e-05 18.4804 0.105347 18.2929 0.292883C18.1054 0.480419 18 0.734773 18 0.99999V35C18 35.2652 18.1054 35.5196 18.2929 35.7071C18.4804 35.8946 18.7348 36 19 36H20.64C20.9927 36.8092 21.0974 37.7048 20.9407 38.5736C20.7841 39.4423 20.3731 40.245 19.76 40.88C19.3025 41.2993 18.7607 41.6162 18.1709 41.8093C17.5812 42.0024 16.9569 42.0675 16.34 42C15.4695 41.9247 14.6477 41.5664 14 40.98C13.4012 40.2629 13.0393 39.3779 12.9641 38.4467C12.8889 37.5155 13.104 36.5839 13.58 35.78C13.7031 35.6889 13.8046 35.5718 13.8772 35.4369C13.9498 35.3021 13.9917 35.1529 14 35V28C14.0001 27.7747 13.9227 27.5562 13.7806 27.3814C13.6385 27.2065 13.4406 27.086 13.22 27.04L10.6 26.34C8.38 25.82 8 24.34 8 21.08V15.08C8 11.92 8.4 10.3 10.72 9.79999L13.22 9.25999C13.4584 9.21161 13.6702 9.07631 13.8144 8.8804C13.9586 8.68449 14.0247 8.44197 14 8.19999V0.99999C14 0.734773 13.8946 0.480419 13.7071 0.292883C13.5196 0.105347 13.2652 -1.05137e-05 13 -1.05137e-05H7.78C5.76381 -0.0376446 3.81452 0.723354 2.35712 2.11706C0.899724 3.51076 0.0524377 5.42414 0 7.43999V28.56C0.0524377 30.5758 0.899724 32.4892 2.35712 33.8829C3.81452 35.2766 5.76381 36.0376 7.78 36H11.36C10.9531 37.083 10.8574 38.2582 11.0836 39.3927C11.3098 40.5272 11.8489 41.5759 12.64 42.42C13.6077 43.2954 14.824 43.8477 16.12 44H16.78C18.3871 43.9893 19.9332 43.3837 21.12 42.3C21.9395 41.4979 22.5237 40.4867 22.8093 39.3761C23.0948 38.2655 23.0709 37.0979 22.74 36H45C45.2652 36 45.5196 35.8946 45.7071 35.7071C45.8946 35.5196 46 35.2652 46 35V0.99999C46 0.734773 45.8946 0.480419 45.7071 0.292883C45.5196 0.105347 45.2652 -1.05137e-05 45 -1.05137e-05ZM2 28.56V7.43999C2.04703 5.95279 2.68192 4.54493 3.76544 3.52515C4.84896 2.50536 6.29268 1.95688 7.78 1.99999H12V7.39999L10.28 7.77999C6 8.69999 6 12.66 6 15V21C6 23.48 6 27.24 10.16 28.2L12 28.64V34H7.78C6.29268 34.0431 4.84896 33.4946 3.76544 32.4748C2.68192 31.455 2.04703 30.0472 2 28.56ZM44 34H20V1.99999H44V34Z" fill="#212120"/>
<path id="Vector_2" d="M25 14H39C39.2652 14 39.5196 13.8946 39.7071 13.7071C39.8946 13.5196 40 13.2652 40 13V7C40 6.73478 39.8946 6.48043 39.7071 6.29289C39.5196 6.10536 39.2652 6 39 6H25C24.7348 6 24.4804 6.10536 24.2929 6.29289C24.1054 6.48043 24 6.73478 24 7V13C24 13.2652 24.1054 13.5196 24.2929 13.7071C24.4804 13.8946 24.7348 14 25 14ZM26 8H38V12H26V8Z" fill="#212120"/>
<path id="Vector_3" d="M25 18H27C27.2652 18 27.5196 17.8946 27.7071 17.7071C27.8946 17.5196 28 17.2652 28 17C28 16.7348 27.8946 16.4804 27.7071 16.2929C27.5196 16.1054 27.2652 16 27 16H25C24.7348 16 24.4804 16.1054 24.2929 16.2929C24.1054 16.4804 24 16.7348 24 17C24 17.2652 24.1054 17.5196 24.2929 17.7071C24.4804 17.8946 24.7348 18 25 18Z" fill="#212120"/>
<path id="Vector_4" d="M33 16H31C30.7348 16 30.4804 16.1054 30.2929 16.2929C30.1054 16.4804 30 16.7348 30 17C30 17.2652 30.1054 17.5196 30.2929 17.7071C30.4804 17.8946 30.7348 18 31 18H33C33.2652 18 33.5196 17.8946 33.7071 17.7071C33.8946 17.5196 34 17.2652 34 17C34 16.7348 33.8946 16.4804 33.7071 16.2929C33.5196 16.1054 33.2652 16 33 16Z" fill="#212120"/>
<path id="Vector_5" d="M39 16H37C36.7348 16 36.4804 16.1054 36.2929 16.2929C36.1054 16.4804 36 16.7348 36 17C36 17.2652 36.1054 17.5196 36.2929 17.7071C36.4804 17.8946 36.7348 18 37 18H39C39.2652 18 39.5196 17.8946 39.7071 17.7071C39.8946 17.5196 40 17.2652 40 17C40 16.7348 39.8946 16.4804 39.7071 16.2929C39.5196 16.1054 39.2652 16 39 16Z" fill="#212120"/>
<path id="Vector_6" d="M25 24H27C27.2652 24 27.5196 23.8946 27.7071 23.7071C27.8946 23.5196 28 23.2652 28 23C28 22.7348 27.8946 22.4804 27.7071 22.2929C27.5196 22.1054 27.2652 22 27 22H25C24.7348 22 24.4804 22.1054 24.2929 22.2929C24.1054 22.4804 24 22.7348 24 23C24 23.2652 24.1054 23.5196 24.2929 23.7071C24.4804 23.8946 24.7348 24 25 24Z" fill="#212120"/>
<path id="Vector_7" d="M33 22H31C30.7348 22 30.4804 22.1054 30.2929 22.2929C30.1054 22.4804 30 22.7348 30 23C30 23.2652 30.1054 23.5196 30.2929 23.7071C30.4804 23.8946 30.7348 24 31 24H33C33.2652 24 33.5196 23.8946 33.7071 23.7071C33.8946 23.5196 34 23.2652 34 23C34 22.7348 33.8946 22.4804 33.7071 22.2929C33.5196 22.1054 33.2652 22 33 22Z" fill="#212120"/>
<path id="Vector_8" d="M39 22H37C36.7348 22 36.4804 22.1054 36.2929 22.2929C36.1054 22.4804 36 22.7348 36 23C36 23.2652 36.1054 23.5196 36.2929 23.7071C36.4804 23.8946 36.7348 24 37 24H39C39.2652 24 39.5196 23.8946 39.7071 23.7071C39.8946 23.5196 40 23.2652 40 23C40 22.7348 39.8946 22.4804 39.7071 22.2929C39.5196 22.1054 39.2652 22 39 22Z" fill="#212120"/>
<path id="Vector_9" d="M25 30H27C27.2652 30 27.5196 29.8946 27.7071 29.7071C27.8946 29.5196 28 29.2652 28 29C28 28.7348 27.8946 28.4804 27.7071 28.2929C27.5196 28.1054 27.2652 28 27 28H25C24.7348 28 24.4804 28.1054 24.2929 28.2929C24.1054 28.4804 24 28.7348 24 29C24 29.2652 24.1054 29.5196 24.2929 29.7071C24.4804 29.8946 24.7348 30 25 30Z" fill="#212120"/>
<path id="Vector_10" d="M33 28H31C30.7348 28 30.4804 28.1054 30.2929 28.2929C30.1054 28.4804 30 28.7348 30 29C30 29.2652 30.1054 29.5196 30.2929 29.7071C30.4804 29.8946 30.7348 30 31 30H33C33.2652 30 33.5196 29.8946 33.7071 29.7071C33.8946 29.5196 34 29.2652 34 29C34 28.7348 33.8946 28.4804 33.7071 28.2929C33.5196 28.1054 33.2652 28 33 28Z" fill="#212120"/>
<path id="Vector_11" d="M39 28H37C36.7348 28 36.4804 28.1054 36.2929 28.2929C36.1054 28.4804 36 28.7348 36 29C36 29.2652 36.1054 29.5196 36.2929 29.7071C36.4804 29.8946 36.7348 30 37 30H39C39.2652 30 39.5196 29.8946 39.7071 29.7071C39.8946 29.5196 40 29.2652 40 29C40 28.7348 39.8946 28.4804 39.7071 28.2929C39.5196 28.1054 39.2652 28 39 28Z" fill="#212120"/>
</g>
</svg>
