<svg width="123" height="50" viewBox="0 0 123 50" fill="none" xmlns="http://www.w3.org/2000/svg">
<g id="logo-en 1" clip-path="url(#clip0_348_585)">
<path id="Vector" d="M16.4647 0.079834C25.5128 0.079834 32.8609 7.47709 32.8609 16.6095C32.8609 18.0365 32.6783 19.4177 32.3474 20.7419C31.9709 22.2031 31.4004 23.5958 30.6702 24.8744C29.9513 26.1301 29.0728 27.283 28.0573 28.299C25.0907 31.2899 20.9945 33.1392 16.4761 33.1392V32.9223C16.3164 28.2077 14.2968 23.9725 11.1476 20.936C8.24947 18.1392 4.37006 16.3584 0.102715 16.1529C0.216815 11.7693 2.03101 7.81956 4.89492 4.92002C7.83871 1.92915 11.9349 0.079834 16.4647 0.079834ZM0.079895 49.6689C9.12804 49.6689 16.4761 42.2716 16.4761 33.1392H0.079895V49.6689ZM74.3477 49.7031H76.7438V34.1323L74.2336 34.589V39.783C73.3664 39.0068 72.2483 38.5502 71.0388 38.5502C68.1178 38.5502 65.6419 41.1072 65.6419 44.2693C65.6419 47.4314 68.0836 49.9885 70.9932 49.9885C72.2939 49.9885 73.4577 49.4634 74.3477 48.5958V49.7031ZM88.9525 47.6027L86.9216 46.1643C86.3282 47.0775 85.3242 47.5798 84.2288 47.5798C82.6542 47.5798 81.4219 46.5524 81.0796 45.1597H89.2606C89.3062 44.7944 89.3291 44.4748 89.3291 44.0867C89.3291 40.936 87.1612 38.5502 84.0234 38.5502C80.6917 38.5502 78.4211 41.1072 78.4211 44.2693C78.4211 47.4314 80.8857 49.9885 84.206 49.9885C86.1799 49.9771 87.9028 49.0639 88.9525 47.6027ZM97.5215 41.1757V38.8241C97.1335 38.7556 96.8369 38.71 96.4489 38.71C94.9884 38.71 93.8246 39.4406 93.4595 40.6049V38.71L90.9949 39.1666V49.7031H93.5051V41.1757H97.5215ZM58.9898 40.9474C60.5416 40.9474 61.4544 41.9063 61.4544 43.8698V49.7031H63.9646V43.5273C63.9646 40.8104 62.5041 38.5387 59.5489 38.5387C58.1797 38.5387 56.9931 39.0638 56.1031 39.9314V38.6986L53.707 39.1552V49.6917H56.2172V42.3972C56.7991 41.5182 57.7804 40.9474 58.9898 40.9474ZM71.4724 47.5798C69.6468 47.5798 68.2091 46.0958 68.2091 44.2693C68.2091 42.4428 69.6468 40.9588 71.4724 40.9588C72.6362 40.9588 73.6631 41.5753 74.2336 42.5113V46.0273C73.6631 46.9634 72.6362 47.5798 71.4724 47.5798ZM84.012 40.8333C85.4497 40.8333 86.4537 41.7465 86.7048 43.1164H81.0568C81.3877 41.7922 82.4374 40.8333 84.012 40.8333ZM49.143 49.7031H51.6532V38.8241H49.143V49.7031ZM38.2806 34.2465V49.7031H40.9049V43.5273H46.5073V40.9931H40.9049V36.7807H47.2603V34.2465H38.2806ZM50.3753 34.041C49.4625 34.041 48.6866 34.7944 48.6866 35.7305C48.6866 36.6666 49.4625 37.4428 50.3753 37.4428C51.3109 37.4428 52.1096 36.6666 52.1096 35.7305C52.1096 34.7944 51.3109 34.041 50.3753 34.041ZM76.4015 27.3744C79.3225 27.3744 81.7985 24.8173 81.7985 21.6552C81.7985 18.5045 79.3567 15.936 76.4472 15.936C75.1692 15.936 74.0054 16.4611 73.1154 17.3059V16.0958L70.7193 16.5524V31.2328H73.2295V26.1529C74.0967 26.9177 75.192 27.3744 76.4015 27.3744ZM93.7676 24.9885L91.7366 23.5502C91.1433 24.4634 90.1392 24.9657 89.0438 24.9657C87.4921 24.9657 86.2826 23.9611 85.8946 22.5912H94.0756C94.1213 22.2031 94.1441 21.8835 94.1441 21.4725C94.1441 18.3218 91.9762 15.936 88.8384 15.936C85.5067 15.936 83.2361 18.4931 83.2361 21.6552C83.2361 24.8059 85.7007 27.3744 89.021 27.3744C91.0063 27.3744 92.7178 26.4611 93.7676 24.9885ZM57.187 18.573V16.21C56.7991 16.1415 56.5024 16.0958 56.1145 16.0958C54.6768 16.0958 53.513 16.8264 53.1479 17.9908V16.0958L50.6833 16.5524V27.089H53.1707V18.5616H57.187V18.573ZM102.348 18.573V16.21C101.96 16.1415 101.663 16.0958 101.275 16.0958C99.8377 16.0958 98.6739 16.8264 98.3087 17.9908V16.0958L95.8214 16.5524V27.089H98.3316V18.5616H102.348V18.573ZM111.008 26.6438L110.027 24.4748C109.548 24.7031 108.886 24.9771 108.11 24.9771C106.764 24.9771 106.079 24.1323 106.079 22.8081V18.573H110.221V16.21H106.079V13.0593L103.592 13.5159V22.7967C103.592 25.5821 105.121 27.3744 108.03 27.3744C109.262 27.3744 110.301 26.9634 111.008 26.6438ZM63.3827 24.9657C61.6484 24.9657 60.2563 23.5273 60.2563 21.6552C60.2563 19.783 61.6484 18.3447 63.3827 18.3447C65.0942 18.3447 66.509 19.783 66.509 21.6552C66.509 23.5273 65.0942 24.9657 63.3827 24.9657ZM75.9679 24.9657C74.8269 24.9657 73.8 24.3721 73.2295 23.4588V19.8515C73.8 18.9383 74.8269 18.3447 75.9679 18.3447C77.7935 18.3447 79.2312 19.8287 79.2312 21.6552C79.2312 23.4817 77.7935 24.9657 75.9679 24.9657ZM88.8384 18.2419C90.2989 18.2419 91.2802 19.1552 91.5312 20.5022H85.8832C86.2141 19.2123 87.2638 18.2419 88.8384 18.2419ZM116.576 31.2328L122.977 16.21H120.193L117.135 23.6186L114.009 16.21H111.202L115.8 26.6323L113.861 31.2328H116.576ZM63.3827 27.3744C66.4862 27.3744 69.0535 24.8629 69.0535 21.6552C69.0535 18.4588 66.4976 15.936 63.3827 15.936C60.2563 15.936 57.6891 18.4474 57.6891 21.6552C57.6891 24.8515 60.2449 27.3744 63.3827 27.3744ZM43.883 14.178C45.3206 14.178 46.3703 15.1826 46.3703 16.4839C46.3703 17.8081 45.2978 18.8812 43.8373 18.8812H40.9392V14.1666H43.883V14.178ZM43.9742 11.6438H38.2806V27.1004H40.9278V21.4269H43.8715C46.7469 21.4269 49.0859 19.2579 49.0859 16.4839C49.0973 13.7442 46.8039 11.6438 43.9742 11.6438Z" fill="#212120"/>
</g>
<defs>
<clipPath id="clip0_348_585">
<rect width="123" height="50" fill="white"/>
</clipPath>
</defs>
</svg>
