<svg width="34" height="47" viewBox="0 0 34 47" fill="none" xmlns="http://www.w3.org/2000/svg">
<g id="quill">
<path id="Vector" d="M33.2656 11.794C33.4103 7.99644 32.5859 4.22453 30.87 0.83362C30.7876 0.664587 30.6617 0.520524 30.5052 0.416209C30.3487 0.311895 30.1673 0.251086 29.9796 0.24002C25.9243 0.0149408 21.8849 0.905798 18.3005 2.81575C14.716 4.72571 11.7237 7.58168 9.6488 11.0732C7.91324 14.2319 6.93344 17.7499 6.78631 21.351C6.63917 24.9521 7.32871 28.5383 8.8008 31.828L0.193602 45.0356C0.0401871 45.2693 -0.0147018 45.5541 0.0408859 45.8281C0.0964736 46.1021 0.258037 46.343 0.490401 46.4984C0.664063 46.6213 0.871265 46.6879 1.084 46.6892C1.26099 46.687 1.43474 46.6414 1.58999 46.5564C1.74523 46.4714 1.87724 46.3496 1.9744 46.2016L10.5604 32.9728C14.1789 33 17.7542 32.1848 21.0032 30.5915C24.2522 28.9983 27.0859 26.6708 29.28 23.7932C30.6609 21.8556 31.7204 19.7081 32.4176 17.4332C32.8204 16.034 31.2304 15.4404 29.386 14.7408L28.5804 14.4228L29.7252 14.0624C31.8028 13.4476 33.2232 12.96 33.2656 11.794ZM25.4428 14.1684C25.2308 15.4616 26.6936 16.034 28.5592 16.7336L30.128 17.3696C29.4986 19.2192 28.6061 20.9685 27.478 22.5636C25.6523 24.9849 23.3192 26.9777 20.6422 28.4023C17.9651 29.8269 15.009 30.6488 11.9808 30.8104L18.1076 21.44H18.4256H23.1744C23.4555 21.44 23.7251 21.3283 23.9239 21.1296C24.1227 20.9308 24.2344 20.6611 24.2344 20.38C24.229 20.1006 24.1156 19.8341 23.9179 19.6365C23.7203 19.4389 23.4538 19.3254 23.1744 19.32H19.4644L25.464 10.098C25.5899 9.86946 25.6271 9.60249 25.5684 9.34824C25.5097 9.09398 25.3593 8.8703 25.146 8.72002C25.0299 8.6422 24.8993 8.58861 24.762 8.56246C24.6247 8.53631 24.4835 8.53813 24.3469 8.56782C24.2104 8.59751 24.0812 8.65446 23.9671 8.73525C23.8531 8.81605 23.7565 8.91902 23.6832 9.03802L20.0792 14.55L18.68 11.4336C18.6188 11.3083 18.5334 11.1963 18.4289 11.104C18.3244 11.0117 18.2027 10.9409 18.0708 10.8956C17.9389 10.8504 17.7994 10.8315 17.6602 10.8402C17.521 10.8488 17.3849 10.8848 17.2596 10.946C17.1343 11.0073 17.0223 11.0926 16.93 11.1971C16.8377 11.3017 16.7669 11.4233 16.7216 11.5552C16.6763 11.6871 16.6575 11.8267 16.6661 11.9658C16.6748 12.105 16.7108 12.2411 16.772 12.3664L18.892 16.6064L15.1608 22.3516L13.0408 19.002C12.9695 18.877 12.8735 18.7678 12.7586 18.6811C12.6437 18.5944 12.5124 18.532 12.3726 18.4978C12.2328 18.4635 12.0875 18.458 11.9455 18.4817C11.8036 18.5054 11.6679 18.5578 11.5469 18.6356C11.4258 18.7134 11.3219 18.8151 11.2414 18.9344C11.1609 19.0537 11.1055 19.1882 11.0787 19.3296C11.0518 19.471 11.0541 19.6163 11.0852 19.7568C11.1164 19.8974 11.1759 20.03 11.26 20.1468L13.8252 24.1324L13.9524 24.2596L10.2 29.6444C9.12127 26.8132 8.67613 23.7801 8.89589 20.7583C9.11565 17.7366 9.99499 14.7997 11.472 12.1544C13.2542 9.15317 15.7903 6.67023 18.8287 4.95209C21.8671 3.23395 25.302 2.34035 28.7924 2.36002H29.28C30.5951 5.17093 31.2478 8.24606 31.188 11.3488C30.4973 11.6338 29.7892 11.8746 29.068 12.0696C26.9904 12.6632 25.6336 13.066 25.4428 14.1684Z" fill="#212120"/>
</g>
</svg>
