<svg width="21" height="21" viewBox="0 0 21 21" fill="none" xmlns="http://www.w3.org/2000/svg">
<g id="icon/twitter">
<path id="Vector" d="M18.6283 4.20571C17.9491 4.52655 16.7933 5.12821 16.2125 5.24321C16.19 5.24905 16.1716 5.25655 16.15 5.26238C15.4725 4.59405 14.5441 4.17988 13.5166 4.17988C11.4458 4.17988 9.76663 5.85905 9.76663 7.92988C9.76663 8.03905 9.75746 8.23988 9.76663 8.34655C7.08496 8.34655 5.12663 6.94738 3.66079 5.14905C3.46496 4.90738 3.25663 5.03321 3.21329 5.20488C3.11579 5.59321 3.08246 6.24238 3.08246 6.70571C3.08246 7.87321 3.99496 9.01988 5.41579 9.73071C5.15413 9.79821 4.86579 9.84655 4.56579 9.84655C4.21246 9.84655 3.80579 9.75405 3.44996 9.56738C3.31829 9.49821 3.03413 9.51738 3.11829 9.85405C3.45579 11.2032 4.99579 12.1507 6.37163 12.4265C6.05913 12.6107 5.39246 12.5732 5.08579 12.5732C4.97246 12.5732 4.57829 12.5465 4.32329 12.5149C4.09079 12.4865 3.73329 12.5465 4.03246 12.9999C4.67496 13.9724 6.12829 14.5832 7.37913 14.6065C6.22746 15.5099 4.34413 15.8399 2.53996 15.8399C2.17496 15.8315 2.19329 16.2474 2.48746 16.4015C3.81829 17.0999 5.99829 17.5132 7.55579 17.5132C13.7475 17.5132 17.2666 12.794 17.2666 8.34571C17.2666 8.27405 17.265 8.12405 17.2625 7.97321C17.2625 7.95821 17.2666 7.94405 17.2666 7.92905C17.2666 7.90655 17.26 7.88488 17.26 7.86238C17.2575 7.74905 17.255 7.64321 17.2525 7.58821C17.7433 7.23405 18.495 6.61905 18.875 6.14821C19.0041 5.98821 18.9 5.79405 18.7241 5.85488C18.2716 6.01238 17.4891 6.31738 16.9991 6.37571C17.98 5.72655 18.465 5.16155 18.8816 4.53405C19.0241 4.31988 18.8458 4.10238 18.6283 4.20571Z" fill="white"/>
</g>
</svg>
