<svg width="120" height="39" viewBox="0 0 120 39" fill="none" xmlns="http://www.w3.org/2000/svg">
<g id="Vrbo 1" clip-path="url(#clip0_348_564)">
<path id="Vector" d="M105.6 12.6067V12.6652C113.021 13.2989 115.2 18.6517 115.094 21.7619C114.922 30.7709 108.048 38.0249 96.96 38.9122V38.9609C109.142 38.2199 116.275 31.8239 116.429 22.6589C116.41 19.2854 113.99 13.1039 105.6 12.6067Z" fill="#212120"/>
<path id="Vector_2" d="M96.96 38.805C101.484 38.4971 105.732 36.4816 108.867 33.1546C112.002 29.8277 113.799 25.43 113.904 20.826C113.904 17.979 111.984 13.299 105.533 12.7725V12.8212C110.87 13.3965 112.752 17.3452 112.714 19.929C112.56 28.6162 105.926 37.8202 97.0176 38.7465L96.96 38.805Z" fill="#212120"/>
<path id="Vector_3" d="M97.0368 38.6392C104.918 37.8105 111.264 27.5145 111.437 18.9832C111.437 16.6725 109.987 13.4452 105.485 12.9285V12.987C109.027 13.533 110.285 16.0387 110.285 18.096C110.141 26.4517 103.958 37.6642 97.1712 38.571L97.0368 38.6392Z" fill="#212120"/>
<path id="Vector_4" d="M97.1424 38.4151V38.4834C102.902 37.6351 108.845 25.3404 108.989 17.1504C109.029 16.1351 108.677 15.1441 108.008 14.3884C107.339 13.6327 106.406 13.1719 105.408 13.1041V13.1626C106.111 13.2827 106.744 13.6697 107.177 14.2453C107.61 14.821 107.812 15.5422 107.741 16.2631C107.52 24.2679 101.76 37.5474 97.1424 38.4151ZM93.5232 35.2366C93.6576 27.5341 99.6384 14.0011 104.083 13.0846V13.0164C98.5152 13.8549 92.3616 26.3641 92.2176 34.3006C92.1798 34.8118 92.2435 35.3255 92.4047 35.8113C92.5659 36.2971 92.8215 36.7451 93.1563 37.1288C93.4911 37.5125 93.8983 37.824 94.3538 38.0449C94.8093 38.2659 95.3038 38.3918 95.808 38.4151V38.3566C95.4552 38.3066 95.1157 38.1858 94.8093 38.0013C94.5028 37.8169 94.2355 37.5724 94.0229 37.2821C93.8103 36.9918 93.6567 36.6614 93.5709 36.3103C93.4851 35.9591 93.4689 35.5942 93.5232 35.2366Z" fill="#212120"/>
<path id="Vector_5" d="M91.0752 33.4036C91.2192 25.2624 97.6608 13.8354 104.208 12.9286V12.8701C96.528 13.6989 89.9712 24.1509 89.808 32.4676C89.808 34.7881 91.3056 38.2201 95.76 38.5906V38.5321C92.2848 38.0739 91.0368 35.4609 91.0752 33.4036Z" fill="#212120"/>
<path id="Vector_6" d="M88.6272 31.5706C88.7712 23.0393 95.616 13.6793 104.285 12.7531V12.6946C99.7978 13.0776 95.6026 15.1105 92.4865 18.4117C89.3704 21.713 87.5476 26.0556 87.36 30.6248C87.36 33.4718 89.28 38.3078 95.7408 38.7368V38.6783C90.1728 38.1713 88.5888 34.1251 88.6272 31.5706Z" fill="#212120"/>
<path id="Vector_7" d="M86.1792 29.7376C86.3328 20.7773 93.936 13.4453 104.362 12.5971V12.5386C92.688 13.2698 85.0464 19.6658 84.8928 28.7918C84.8256 32.1653 87.2544 38.4053 95.6352 38.8928C88.32 38.3078 86.1312 32.8478 86.1792 29.7376ZM80.2464 12.7336C76.224 12.1778 71.3664 14.5763 68.6304 18.7883L68.6784 18.8566C71.2704 15.0736 75.648 12.8213 79.2384 13.3283C81.6576 13.6598 83.3184 15.5221 82.9824 19.1783C82.128 28.4896 74.4 38.9513 62.0352 38.9221V38.9903C67.5509 39.2057 72.9404 37.2808 77.1092 33.6064C81.278 29.9321 83.9133 24.7839 84.48 19.2076C84.816 15.1711 82.9728 13.1138 80.2464 12.7336Z" fill="#212120"/>
<path id="Vector_8" d="M81.5328 19.1393C81.8304 15.9315 80.4192 14.2643 78.2016 13.962C75.0048 13.5233 71.1168 15.5025 68.7648 18.9833L68.8128 19.0418C70.9728 16.0388 74.4288 14.1668 77.2032 14.5568C79.1232 14.82 80.3904 16.2825 80.0832 19.11C79.344 27.1245 71.8176 38.142 62.0736 38.7563C72.96 38.7465 80.7264 27.8753 81.5328 19.1393Z" fill="#212120"/>
<path id="Vector_9" d="M62.208 38.5613V38.6198C71.28 37.5181 78 26.3251 78.72 19.0711C78.9312 16.6921 77.856 15.4246 76.2528 15.1711C73.8336 14.8298 70.8192 16.4873 68.9568 19.1393V19.1978C70.7328 16.8676 73.2096 15.4831 75.168 15.7561C76.5504 15.9511 77.3952 17.0138 77.2128 18.9541C76.608 25.5646 70.4352 36.8161 62.208 38.5613Z" fill="#212120"/>
<path id="Vector_10" d="M62.3136 38.337V38.4248C69.0336 36.5918 75.264 24.7747 75.7536 18.9247C75.888 17.433 75.2352 16.5555 74.16 16.4093C72.5568 16.185 70.5216 17.3843 69.0336 19.3342V19.3927C70.272 17.8913 71.9136 16.8285 73.1136 16.9943C73.8912 17.1015 74.4 17.7937 74.2944 18.8955C73.92 24.0045 68.16 35.802 62.3136 38.337ZM61.2576 31.6972C60.5433 33.2883 60.0335 34.9661 59.7408 36.6893C59.7508 37.0148 59.8448 37.332 60.0132 37.6091C60.1817 37.8863 60.4187 38.1137 60.7008 38.2687C60.7933 38.3161 60.8897 38.3552 60.9888 38.3857V38.298C60.8525 38.1638 60.7514 37.9973 60.6944 37.8135C60.6374 37.6296 60.6264 37.4342 60.6624 37.245C61.0592 35.4961 61.6418 33.7962 62.4 32.175L74.88 0L73.1232 0.351C73.2192 0.7605 69.8496 9.17475 69.7152 9.594L61.2576 31.6972Z" fill="#212120"/>
<path id="Vector_11" d="M58.9632 30.6929C58.3288 32.2368 57.8714 33.8496 57.6 35.4997C57.4464 37.2644 58.9632 38.2199 60.9984 38.5319V38.4734C59.6064 38.2199 58.5312 37.4984 58.656 36.1334C58.9757 34.4617 59.4647 32.828 60.1152 31.2584L68.4288 9.5354C68.6304 8.96015 71.7888 1.19915 71.3088 0.701904L69.6 1.0529V1.1504C69.6672 3.0419 67.5072 8.21915 67.0656 9.4379L58.9632 30.6929Z" fill="#212120"/>
<path id="Vector_12" d="M64.4736 9.3308L56.64 29.6985C56.0139 31.1342 55.5687 32.6444 55.3152 34.1933C55.104 36.6796 57.1104 38.3956 60.864 38.6588C60.0905 38.5721 59.3299 38.3921 58.5984 38.1225C57.9124 37.9534 57.3114 37.5342 56.9097 36.9447C56.5079 36.3551 56.3334 35.6362 56.4192 34.9245C56.6902 33.3045 57.1612 31.7256 57.8208 30.225L65.808 9.37955C66.2112 8.2778 68.496 3.0128 67.9488 1.40405L66.2976 1.73555V1.83305C67.2 3.0908 65.0016 7.9658 64.4736 9.3308Z" fill="#212120"/>
<path id="Vector_13" d="M61.632 9.74999L54.3936 28.704C53.7962 30.0496 53.3889 31.4742 53.184 32.9355C52.9248 36.0457 55.584 38.5905 60.864 38.7855C56.4384 38.532 54.0288 36.4065 54.2688 33.5985C54.4909 32.0964 54.9174 30.6329 55.536 29.25L63.0144 9.74999C63.6864 7.96574 65.6736 3.58799 64.5984 2.12549L62.8992 2.47649V2.57399C64.0512 4.18274 62.4 7.79999 61.632 9.74999Z" fill="#212120"/>
<path id="Vector_14" d="M60.7872 38.9026C54.8256 38.6393 51.8208 35.6851 52.1472 32.2531C52.3249 30.8812 52.6933 29.5418 53.2416 28.2751L60.144 10.1596C61.008 7.89759 62.6208 4.48509 61.3536 2.79834L59.7888 3.12984V3.22734C61.1232 4.74834 59.8848 7.24434 58.9728 9.76959L52.0992 27.7096C51.5447 28.9448 51.1851 30.2609 51.0336 31.6096C50.7072 35.3438 53.9808 38.7271 60.768 38.9318L60.7872 38.9026ZM52.9344 16.0681C52.8096 13.6598 51.408 12.5581 49.7088 12.5581C46.6176 12.5581 43.9488 15.0346 42.2688 18.4081V17.2186C42.1344 14.5958 40.3488 12.5581 37.1712 12.5581C30.4512 12.5581 27.1392 17.0528 26.0352 22.1423H26.0928C27.264 17.3746 30.3936 13.0748 36.432 13.0748C37.0101 13.0225 37.5927 13.0918 38.1433 13.2783C38.694 13.4648 39.2008 13.7645 39.6323 14.1588C40.0638 14.5532 40.4106 15.0335 40.6512 15.5701C40.8917 16.1066 41.0208 16.6877 41.0304 17.2771C41.1936 20.3678 40.1856 22.7761 39.1104 25.5548L34.2144 38.5516H35.52L40.416 25.6621C40.7424 24.7748 41.0496 23.9461 41.328 23.1466C42.288 21.0991 43.488 19.0028 44.112 19.0028C44.5728 19.0028 44.7168 19.4026 44.7456 19.7633C44.751 21.7037 44.2509 23.611 43.296 25.2916L43.3536 25.3501C44.8429 23.6438 45.7311 21.4829 45.8784 19.2076C45.8784 18.5348 45.552 18.0571 44.9184 18.0571C43.872 18.0571 42.5376 20.2411 41.5584 22.5518C41.6736 22.1813 41.7696 21.8108 41.8656 21.4501C42.912 19.1393 44.3616 17.1698 45.7056 17.1698C46.5312 17.1698 47.0304 17.7451 47.0784 18.6908C47.1936 20.9918 45.1584 24.3458 43.4496 25.4476L43.5072 25.5061C45.8304 24.4531 48.384 20.9918 48.24 18.1643C48.1728 16.9066 47.52 16.2143 46.4832 16.2143C44.7744 16.2143 43.1232 18.2326 41.9808 20.7286C41.9808 20.5336 42.0576 20.3386 42.0864 20.1338C43.3632 17.4526 45.2352 15.3271 47.3184 15.3271C48.4512 15.3271 49.3152 16.1071 49.392 17.6281C49.5744 20.9821 46.4544 24.5506 43.632 25.5938L43.6896 25.6523C47.1552 24.7553 50.7744 20.9821 50.5728 17.1016C50.4768 15.2686 49.4496 14.3813 48.1152 14.3813C45.7152 14.3911 43.5744 16.5751 42.24 19.5001V19.0223C43.7664 15.8828 46.176 13.5038 48.96 13.5038C50.4576 13.5038 51.696 14.4788 51.84 16.6043C52.0704 21.0601 48 24.8333 43.8528 25.7791L43.9104 25.8278C48.7104 25.0868 53.1936 21.0503 52.9344 16.0681Z" fill="#212120"/>
<path id="Vector_15" d="M39.8304 17.3745C39.8214 16.8443 39.7059 16.3215 39.4911 15.8381C39.2763 15.3547 38.9668 14.9209 38.5813 14.5632C38.1958 14.2054 37.7425 13.9313 37.2492 13.7575C36.7559 13.5838 36.2328 13.514 35.712 13.5525C30.3552 13.5525 27.2736 17.5988 26.1888 22.1423H26.256C27.4464 17.9108 30.1728 14.079 34.9632 14.079C35.4229 14.0357 35.8865 14.0901 36.3243 14.2389C36.7621 14.3877 37.1646 14.6275 37.5061 14.9431C37.8475 15.2587 38.1204 15.6431 38.3074 16.0718C38.4944 16.5005 38.5913 16.9641 38.592 17.433C38.7264 19.9973 37.536 22.8248 36.5856 25.3988L31.536 38.5515H32.88L37.824 25.506C38.88 22.8248 39.9744 20.1533 39.8304 17.3745Z" fill="#212120"/>
<path id="Vector_16" d="M37.44 17.4817C37.4417 17.0735 37.3594 16.6694 37.1981 16.2955C37.0369 15.9216 36.8003 15.5861 36.5038 15.3106C36.2072 15.0351 35.8571 14.8257 35.476 14.6958C35.095 14.566 34.6914 14.5186 34.2912 14.5567C30.0864 14.5567 27.5136 18.2422 26.4 22.152H26.4576C27.6384 18.5152 30.0576 15.0832 33.552 15.0832C33.8866 15.0593 34.2224 15.1051 34.5389 15.2179C34.8553 15.3307 35.1457 15.5081 35.3921 15.7392C35.6385 15.9703 35.8358 16.2502 35.9717 16.5616C36.1076 16.873 36.1793 17.2093 36.1824 17.55C36.288 19.5877 34.9056 22.893 33.9936 25.2037L28.8 38.5515H30.192L35.2896 25.2915C36.192 22.8832 37.536 19.8412 37.44 17.4817Z" fill="#212120"/>
<path id="Vector_17" d="M34.992 17.6376C34.9944 17.3551 34.9386 17.0751 34.8282 16.8157C34.7178 16.5563 34.5553 16.3232 34.351 16.1314C34.1467 15.9395 33.9052 15.7931 33.642 15.7016C33.3788 15.6101 33.0996 15.5754 32.8224 15.5999C29.9424 15.5999 27.648 18.7784 26.5536 22.1421H26.6208C27.7632 19.1391 29.7216 16.1167 32.0736 16.1167C32.2897 16.0912 32.5086 16.1135 32.7153 16.182C32.9221 16.2506 33.1118 16.3638 33.2714 16.5139C33.431 16.6639 33.5568 16.8473 33.64 17.0514C33.7232 17.2555 33.762 17.4754 33.7536 17.6961C33.84 19.3146 32.2272 22.9904 31.4592 25.0281L26.1216 38.5514H27.456L32.6976 25.1354C33.6 22.9904 35.088 19.4999 34.992 17.6376Z" fill="#212120"/>
<path id="Vector_18" d="M32.5728 17.7938C32.5874 17.6309 32.5667 17.4667 32.5121 17.3128C32.4576 17.1589 32.3705 17.019 32.2571 16.9028C32.1437 16.7867 32.0066 16.6972 31.8555 16.6406C31.7044 16.5839 31.5429 16.5616 31.3824 16.5751C29.6832 16.5751 27.8496 19.2953 26.7456 22.1228H26.8128C27.9264 19.6073 29.6448 17.0918 30.6528 17.0918C31.0656 17.0918 31.3344 17.3063 31.3632 17.8328C31.4208 18.9346 29.616 23.0686 28.8864 24.8528L23.4528 38.5028H24.7968L30.1824 24.9308C30.9408 23.0393 32.64 19.1101 32.5728 17.7938ZM17.8944 29.3671L18.7584 27.5243L15.8304 12.3533C15.0144 8.0828 15.9936 6.22055 19.296 5.57705V5.51855H16.2432C15.36 5.96705 13.488 7.31255 14.5344 12.3436L17.8944 29.3671Z" fill="#212120"/>
<path id="Vector_19" d="M16.1664 33.0331L17.0208 31.2001L13.1808 12.2558C12.4608 8.58005 12.768 6.66905 13.968 5.57705V5.51855H11.8944C11.2608 6.8933 11.0688 8.26805 11.7984 11.9048L16.1664 33.0331ZM14.4 36.6893L15.2544 34.8758L10.4544 11.8561C9.6096 8.2778 9.8016 6.6398 10.1472 5.51855H8.3136C8.29446 7.45463 8.54 9.38404 9.0432 11.2516L14.4 36.6893ZM6.6336 5.51855H4.4736V5.57705C5.4336 6.76655 5.7216 8.21931 6.4896 11.4271L12.2496 38.5613H13.5456L7.7856 11.3393C7.28797 9.42405 6.90328 7.48035 6.6336 5.51855ZM2.3136 5.51855H0V5.57705C2.112 6.4253 3.1488 8.05355 3.984 11.8658L9.6768 38.5516H10.9728L5.2416 11.7001C4.2528 7.03955 3.216 6.18155 2.3136 5.51855ZM31.7472 5.51855C29.0208 7.13705 27.3984 10.1303 24 17.5501L24.0864 17.5988C28.0128 10.1303 30.2496 7.15655 35.3184 5.6063V5.51855H31.7472ZM23.808 17.4038L23.8944 17.4623C27.12 9.75005 27.9648 7.5953 29.28 5.57705V5.51855H26.6688V5.59655C26.9376 8.6873 25.92 11.5343 23.808 17.4038Z" fill="#212120"/>
<path id="Vector_20" d="M23.6352 17.2868L23.7216 17.3453C25.7664 10.4326 26.4288 7.3808 24.624 5.51855H22.08V5.57705C24.96 6.61055 25.5552 9.5648 23.6352 17.2868ZM117.12 14.3911V15.7073H116.928V14.3911H116.371V14.2058H117.696V14.3911H117.12ZM119.328 15.7073V14.4301L118.867 15.6878H118.646L118.234 14.4301V15.7073H118.051L118.109 14.2058H118.445L118.829 15.4636L119.27 14.2058H119.578L119.635 15.7073H119.328Z" fill="#212120"/>
</g>
<defs>
<clipPath id="clip0_348_564">
<rect width="120" height="39" fill="white"/>
</clipPath>
</defs>
</svg>
